<?xml version="1.0" encoding="UTF-8" standalone="no"?>
<!-- Created with Inkscape (http://www.inkscape.org/) -->

<svg
   width="1080"
   height="1080"
   viewBox="0 0 285.74999 285.75"
   version="1.1"
   id="svg1"
   inkscape:version="1.3.2 (091e20ef0f, 2023-11-25, custom)"
   sodipodi:docname="post.svg"
   xml:space="preserve"
   xmlns:inkscape="http://www.inkscape.org/namespaces/inkscape"
   xmlns:sodipodi="http://sodipodi.sourceforge.net/DTD/sodipodi-0.dtd"
   xmlns="http://www.w3.org/2000/svg"
   xmlns:svg="http://www.w3.org/2000/svg"><sodipodi:namedview
     id="namedview1"
     pagecolor="#ffffff"
     bordercolor="#000000"
     borderopacity="0.25"
     inkscape:showpageshadow="2"
     inkscape:pageopacity="0.0"
     inkscape:pagecheckerboard="0"
     inkscape:deskcolor="#d1d1d1"
     inkscape:document-units="mm"
     inkscape:zoom="0.42268517"
     inkscape:cx="492.09202"
     inkscape:cy="822.12489"
     inkscape:window-width="1920"
     inkscape:window-height="1151"
     inkscape:window-x="1920"
     inkscape:window-y="182"
     inkscape:window-maximized="1"
     inkscape:current-layer="layer1"
     inkscape:export-bgcolor="#ffffffff"><inkscape:page
       x="0"
       y="0"
       width="285.75"
       height="285.75"
       id="page22"
       margin="0"
       bleed="0"
       inkscape:export-filename="post.png"
       inkscape:export-xdpi="96"
       inkscape:export-ydpi="96" /></sodipodi:namedview><defs
     id="defs1"><rect
       x="-403.21821"
       y="47.514673"
       width="535.31819"
       height="981.63237"
       id="rect14" /><filter
       inkscape:label="Black Hole"
       inkscape:menu="Morphology"
       inkscape:menu-tooltip="Creates a black light inside and outside"
       height="1.2462898"
       width="1.2479305"
       y="-0.12314489"
       x="-0.12396523"
       style="color-interpolation-filters:sRGB;"
       id="filter7"><feGaussianBlur
         stdDeviation="5"
         in="SourceAlpha"
         result="result1"
         id="feGaussianBlur5" /><feComposite
         operator="arithmetic"
         k2="3.2"
         k1="-1"
         k4="-2"
         result="result3"
         in2="result1"
         id="feComposite5" /><feColorMatrix
         values="1 0 0 0 0 0 1 0 0 0 0 0 1 0 0 0 0 0 10 0 "
         result="result2"
         id="feColorMatrix5" /><feComposite
         result="fbSourceGraphic"
         in="SourceGraphic"
         operator="out"
         in2="result2"
         id="feComposite6" /><feBlend
         mode="multiply"
         in="result1"
         in2="fbSourceGraphic"
         result="result91"
         id="feBlend6" /><feBlend
         mode="screen"
         in="fbSourceGraphic"
         in2="result91"
         id="feBlend7" /></filter><mask
       maskUnits="userSpaceOnUse"
       id="mask15"><ellipse
         style="fill:#ffffff;stroke:#808080;stroke-width:1.05833"
         id="ellipse15"
         cx="529.18115"
         cy="236.66608"
         rx="28.749062"
         ry="28.862066" /></mask><mask
       maskUnits="userSpaceOnUse"
       id="mask1"><ellipse
         style="fill:#ffffff;stroke:#808080;stroke-width:1.05833"
         id="ellipse1"
         cx="528.65198"
         cy="155.03865"
         rx="28.749062"
         ry="28.862066" /></mask><style
       type="text/css"
       id="style6">
*{stroke-linecap:butt;stroke-linejoin:round;stroke-miterlimit:100000;}
  </style><clipPath
       id="p1a558b8dcd-1"
       style="stroke-linecap:butt;stroke-linejoin:round;stroke-miterlimit:100000"><path
         d="m 54,73.26 c 8.926736,0 17.489058,-3.54663 23.801214,-9.858786 C 84.11337,57.089058 87.66,48.526736 87.66,39.6 87.66,30.673264 84.11337,22.110942 77.801214,15.798786 71.489058,9.48663 62.926736,5.94 54,5.94 45.073264,5.94 36.510942,9.48663 30.198786,15.798786 23.88663,22.110942 20.34,30.673264 20.34,39.6 c 0,8.926736 3.54663,17.489058 9.858786,23.801214 C 36.510942,69.71337 45.073264,73.26 54,73.26 Z"
         id="path408-5"
         inkscape:connector-curvature="0"
         style="stroke-linecap:butt;stroke-linejoin:round;stroke-miterlimit:100000" /></clipPath><clipPath
       id="clipPath5283"
       style="stroke-linecap:butt;stroke-linejoin:round;stroke-miterlimit:100000"><path
         d="m 54,73.26 c 8.926736,0 17.489058,-3.54663 23.801214,-9.858786 C 84.11337,57.089058 87.66,48.526736 87.66,39.6 87.66,30.673264 84.11337,22.110942 77.801214,15.798786 71.489058,9.48663 62.926736,5.94 54,5.94 45.073264,5.94 36.510942,9.48663 30.198786,15.798786 23.88663,22.110942 20.34,30.673264 20.34,39.6 c 0,8.926736 3.54663,17.489058 9.858786,23.801214 C 36.510942,69.71337 45.073264,73.26 54,73.26 Z"
         id="path5285"
         inkscape:connector-curvature="0"
         style="stroke-linecap:butt;stroke-linejoin:round;stroke-miterlimit:100000" /></clipPath><clipPath
       id="clipPath5287"
       style="stroke-linecap:butt;stroke-linejoin:round;stroke-miterlimit:100000"><path
         d="m 54,73.26 c 8.926736,0 17.489058,-3.54663 23.801214,-9.858786 C 84.11337,57.089058 87.66,48.526736 87.66,39.6 87.66,30.673264 84.11337,22.110942 77.801214,15.798786 71.489058,9.48663 62.926736,5.94 54,5.94 45.073264,5.94 36.510942,9.48663 30.198786,15.798786 23.88663,22.110942 20.34,30.673264 20.34,39.6 c 0,8.926736 3.54663,17.489058 9.858786,23.801214 C 36.510942,69.71337 45.073264,73.26 54,73.26 Z"
         id="path5289"
         inkscape:connector-curvature="0"
         style="stroke-linecap:butt;stroke-linejoin:round;stroke-miterlimit:100000" /></clipPath><clipPath
       id="clipPath5291"
       style="stroke-linecap:butt;stroke-linejoin:round;stroke-miterlimit:100000"><path
         d="m 54,73.26 c 8.926736,0 17.489058,-3.54663 23.801214,-9.858786 C 84.11337,57.089058 87.66,48.526736 87.66,39.6 87.66,30.673264 84.11337,22.110942 77.801214,15.798786 71.489058,9.48663 62.926736,5.94 54,5.94 45.073264,5.94 36.510942,9.48663 30.198786,15.798786 23.88663,22.110942 20.34,30.673264 20.34,39.6 c 0,8.926736 3.54663,17.489058 9.858786,23.801214 C 36.510942,69.71337 45.073264,73.26 54,73.26 Z"
         id="path5293"
         inkscape:connector-curvature="0"
         style="stroke-linecap:butt;stroke-linejoin:round;stroke-miterlimit:100000" /></clipPath><clipPath
       id="clipPath5295"
       style="stroke-linecap:butt;stroke-linejoin:round;stroke-miterlimit:100000"><path
         d="m 54,73.26 c 8.926736,0 17.489058,-3.54663 23.801214,-9.858786 C 84.11337,57.089058 87.66,48.526736 87.66,39.6 87.66,30.673264 84.11337,22.110942 77.801214,15.798786 71.489058,9.48663 62.926736,5.94 54,5.94 45.073264,5.94 36.510942,9.48663 30.198786,15.798786 23.88663,22.110942 20.34,30.673264 20.34,39.6 c 0,8.926736 3.54663,17.489058 9.858786,23.801214 C 36.510942,69.71337 45.073264,73.26 54,73.26 Z"
         id="path5297"
         inkscape:connector-curvature="0"
         style="stroke-linecap:butt;stroke-linejoin:round;stroke-miterlimit:100000" /></clipPath><clipPath
       id="clipPath5299"
       style="stroke-linecap:butt;stroke-linejoin:round;stroke-miterlimit:100000"><path
         d="m 54,73.26 c 8.926736,0 17.489058,-3.54663 23.801214,-9.858786 C 84.11337,57.089058 87.66,48.526736 87.66,39.6 87.66,30.673264 84.11337,22.110942 77.801214,15.798786 71.489058,9.48663 62.926736,5.94 54,5.94 45.073264,5.94 36.510942,9.48663 30.198786,15.798786 23.88663,22.110942 20.34,30.673264 20.34,39.6 c 0,8.926736 3.54663,17.489058 9.858786,23.801214 C 36.510942,69.71337 45.073264,73.26 54,73.26 Z"
         id="path5301"
         inkscape:connector-curvature="0"
         style="stroke-linecap:butt;stroke-linejoin:round;stroke-miterlimit:100000" /></clipPath><clipPath
       id="clipPath5303"
       style="stroke-linecap:butt;stroke-linejoin:round;stroke-miterlimit:100000"><path
         d="m 54,73.26 c 8.926736,0 17.489058,-3.54663 23.801214,-9.858786 C 84.11337,57.089058 87.66,48.526736 87.66,39.6 87.66,30.673264 84.11337,22.110942 77.801214,15.798786 71.489058,9.48663 62.926736,5.94 54,5.94 45.073264,5.94 36.510942,9.48663 30.198786,15.798786 23.88663,22.110942 20.34,30.673264 20.34,39.6 c 0,8.926736 3.54663,17.489058 9.858786,23.801214 C 36.510942,69.71337 45.073264,73.26 54,73.26 Z"
         id="path5305"
         inkscape:connector-curvature="0"
         style="stroke-linecap:butt;stroke-linejoin:round;stroke-miterlimit:100000" /></clipPath><clipPath
       id="p1a558b8dcd"
       style="stroke-linecap:butt;stroke-linejoin:round;stroke-miterlimit:100000"><path
         d="m 54,73.26 c 8.926736,0 17.489058,-3.54663 23.801214,-9.858786 C 84.11337,57.089058 87.66,48.526736 87.66,39.6 87.66,30.673264 84.11337,22.110942 77.801214,15.798786 71.489058,9.48663 62.926736,5.94 54,5.94 45.073264,5.94 36.510942,9.48663 30.198786,15.798786 23.88663,22.110942 20.34,30.673264 20.34,39.6 c 0,8.926736 3.54663,17.489058 9.858786,23.801214 C 36.510942,69.71337 45.073264,73.26 54,73.26 Z"
         id="path408"
         inkscape:connector-curvature="0"
         style="stroke-linecap:butt;stroke-linejoin:round;stroke-miterlimit:100000" /></clipPath><style
       type="text/css"
       id="style1">*{stroke-linejoin: round; stroke-linecap: butt}</style><clipPath
       id="p37a94af48b"><rect
         x="7.2"
         y="7.2"
         width="221.76"
         height="221.76"
         id="rect4" /></clipPath><style
       type="text/css"
       id="style1-7">*{stroke-linejoin: round; stroke-linecap: butt}</style><clipPath
       id="pb1f64f0574"><rect
         x="7.2"
         y="7.2"
         width="221.76"
         height="221.76"
         id="rect5" /></clipPath><style
       type="text/css"
       id="style1-0">*{stroke-linejoin: round; stroke-linecap: butt}</style><path
       id="mede6551a4a"
       d="M 0 0  L 0 3.5  "
       style="stroke: #000000; stroke-width: 0.8" /><path
       id="DejaVuSans-30"
       d="M 2034 4250  Q 1547 4250 1301 3770  Q 1056 3291 1056 2328  Q 1056 1369 1301 889  Q 1547 409 2034 409  Q 2525 409 2770 889  Q 3016 1369 3016 2328  Q 3016 3291 2770 3770  Q 2525 4250 2034 4250  z M 2034 4750  Q 2819 4750 3233 4129  Q 3647 3509 3647 2328  Q 3647 1150 3233 529  Q 2819 -91 2034 -91  Q 1250 -91 836 529  Q 422 1150 422 2328  Q 422 3509 836 4129  Q 1250 4750 2034 4750  z "
       transform="scale(0.015625)" /><path
       id="DejaVuSans-31"
       d="M 794 531  L 1825 531  L 1825 4091  L 703 3866  L 703 4441  L 1819 4666  L 2450 4666  L 2450 531  L 3481 531  L 3481 0  L 794 0  L 794 531  z "
       transform="scale(0.015625)" /><path
       id="DejaVuSans-32"
       d="M 1228 531  L 3431 531  L 3431 0  L 469 0  L 469 531  Q 828 903 1448 1529  Q 2069 2156 2228 2338  Q 2531 2678 2651 2914  Q 2772 3150 2772 3378  Q 2772 3750 2511 3984  Q 2250 4219 1831 4219  Q 1534 4219 1204 4116  Q 875 4013 500 3803  L 500 4441  Q 881 4594 1212 4672  Q 1544 4750 1819 4750  Q 2544 4750 2975 4387  Q 3406 4025 3406 3419  Q 3406 3131 3298 2873  Q 3191 2616 2906 2266  Q 2828 2175 2409 1742  Q 1991 1309 1228 531  z "
       transform="scale(0.015625)" /><path
       id="DejaVuSans-33"
       d="M 2597 2516  Q 3050 2419 3304 2112  Q 3559 1806 3559 1356  Q 3559 666 3084 287  Q 2609 -91 1734 -91  Q 1441 -91 1130 -33  Q 819 25 488 141  L 488 750  Q 750 597 1062 519  Q 1375 441 1716 441  Q 2309 441 2620 675  Q 2931 909 2931 1356  Q 2931 1769 2642 2001  Q 2353 2234 1838 2234  L 1294 2234  L 1294 2753  L 1863 2753  Q 2328 2753 2575 2939  Q 2822 3125 2822 3475  Q 2822 3834 2567 4026  Q 2313 4219 1838 4219  Q 1578 4219 1281 4162  Q 984 4106 628 3988  L 628 4550  Q 988 4650 1302 4700  Q 1616 4750 1894 4750  Q 2613 4750 3031 4423  Q 3450 4097 3450 3541  Q 3450 3153 3228 2886  Q 3006 2619 2597 2516  z "
       transform="scale(0.015625)" /><path
       id="DejaVuSans-34"
       d="M 2419 4116  L 825 1625  L 2419 1625  L 2419 4116  z M 2253 4666  L 3047 4666  L 3047 1625  L 3713 1625  L 3713 1100  L 3047 1100  L 3047 0  L 2419 0  L 2419 1100  L 313 1100  L 313 1709  L 2253 4666  z "
       transform="scale(0.015625)" /><path
       id="DejaVuSans-35"
       d="M 691 4666  L 3169 4666  L 3169 4134  L 1269 4134  L 1269 2991  Q 1406 3038 1543 3061  Q 1681 3084 1819 3084  Q 2600 3084 3056 2656  Q 3513 2228 3513 1497  Q 3513 744 3044 326  Q 2575 -91 1722 -91  Q 1428 -91 1123 -41  Q 819 9 494 109  L 494 744  Q 775 591 1075 516  Q 1375 441 1709 441  Q 2250 441 2565 725  Q 2881 1009 2881 1497  Q 2881 1984 2565 2268  Q 2250 2553 1709 2553  Q 1456 2553 1204 2497  Q 953 2441 691 2322  L 691 4666  z "
       transform="scale(0.015625)" /><path
       id="DejaVuSans-54"
       d="M -19 4666  L 3928 4666  L 3928 4134  L 2272 4134  L 2272 0  L 1638 0  L 1638 4134  L -19 4134  L -19 4666  z "
       transform="scale(0.015625)" /><path
       id="DejaVuSans-69"
       d="M 603 3500  L 1178 3500  L 1178 0  L 603 0  L 603 3500  z M 603 4863  L 1178 4863  L 1178 4134  L 603 4134  L 603 4863  z "
       transform="scale(0.015625)" /><path
       id="DejaVuSans-6d"
       d="M 3328 2828  Q 3544 3216 3844 3400  Q 4144 3584 4550 3584  Q 5097 3584 5394 3201  Q 5691 2819 5691 2113  L 5691 0  L 5113 0  L 5113 2094  Q 5113 2597 4934 2840  Q 4756 3084 4391 3084  Q 3944 3084 3684 2787  Q 3425 2491 3425 1978  L 3425 0  L 2847 0  L 2847 2094  Q 2847 2600 2669 2842  Q 2491 3084 2119 3084  Q 1678 3084 1418 2786  Q 1159 2488 1159 1978  L 1159 0  L 581 0  L 581 3500  L 1159 3500  L 1159 2956  Q 1356 3278 1631 3431  Q 1906 3584 2284 3584  Q 2666 3584 2933 3390  Q 3200 3197 3328 2828  z "
       transform="scale(0.015625)" /><path
       id="DejaVuSans-65"
       d="M 3597 1894  L 3597 1613  L 953 1613  Q 991 1019 1311 708  Q 1631 397 2203 397  Q 2534 397 2845 478  Q 3156 559 3463 722  L 3463 178  Q 3153 47 2828 -22  Q 2503 -91 2169 -91  Q 1331 -91 842 396  Q 353 884 353 1716  Q 353 2575 817 3079  Q 1281 3584 2069 3584  Q 2775 3584 3186 3129  Q 3597 2675 3597 1894  z M 3022 2063  Q 3016 2534 2758 2815  Q 2500 3097 2075 3097  Q 1594 3097 1305 2825  Q 1016 2553 972 2059  L 3022 2063  z "
       transform="scale(0.015625)" /><path
       id="DejaVuSans-20"
       transform="scale(0.015625)" /><path
       id="DejaVuSans-28"
       d="M 1984 4856  Q 1566 4138 1362 3434  Q 1159 2731 1159 2009  Q 1159 1288 1364 580  Q 1569 -128 1984 -844  L 1484 -844  Q 1016 -109 783 600  Q 550 1309 550 2009  Q 550 2706 781 3412  Q 1013 4119 1484 4856  L 1984 4856  z "
       transform="scale(0.015625)" /><path
       id="DejaVuSans-73"
       d="M 2834 3397  L 2834 2853  Q 2591 2978 2328 3040  Q 2066 3103 1784 3103  Q 1356 3103 1142 2972  Q 928 2841 928 2578  Q 928 2378 1081 2264  Q 1234 2150 1697 2047  L 1894 2003  Q 2506 1872 2764 1633  Q 3022 1394 3022 966  Q 3022 478 2636 193  Q 2250 -91 1575 -91  Q 1294 -91 989 -36  Q 684 19 347 128  L 347 722  Q 666 556 975 473  Q 1284 391 1588 391  Q 1994 391 2212 530  Q 2431 669 2431 922  Q 2431 1156 2273 1281  Q 2116 1406 1581 1522  L 1381 1569  Q 847 1681 609 1914  Q 372 2147 372 2553  Q 372 3047 722 3315  Q 1072 3584 1716 3584  Q 2034 3584 2315 3537  Q 2597 3491 2834 3397  z "
       transform="scale(0.015625)" /><path
       id="DejaVuSans-29"
       d="M 513 4856  L 1013 4856  Q 1481 4119 1714 3412  Q 1947 2706 1947 2009  Q 1947 1309 1714 600  Q 1481 -109 1013 -844  L 513 -844  Q 928 -128 1133 580  Q 1338 1288 1338 2009  Q 1338 2731 1133 3434  Q 928 4138 513 4856  z "
       transform="scale(0.015625)" /><path
       id="m9810e665cd"
       d="M 0 0  L -3.5 0  "
       style="stroke: #000000; stroke-width: 0.8" /><path
       id="DejaVuSans-2212"
       d="M 678 2272  L 4684 2272  L 4684 1741  L 678 1741  L 678 2272  z "
       transform="scale(0.015625)" /><path
       id="DejaVuSans-2e"
       d="M 684 794  L 1344 794  L 1344 0  L 684 0  L 684 794  z "
       transform="scale(0.015625)" /><path
       id="DejaVuSans-61"
       d="M 2194 1759  Q 1497 1759 1228 1600  Q 959 1441 959 1056  Q 959 750 1161 570  Q 1363 391 1709 391  Q 2188 391 2477 730  Q 2766 1069 2766 1631  L 2766 1759  L 2194 1759  z M 3341 1997  L 3341 0  L 2766 0  L 2766 531  Q 2569 213 2275 61  Q 1981 -91 1556 -91  Q 1019 -91 701 211  Q 384 513 384 1019  Q 384 1609 779 1909  Q 1175 2209 1959 2209  L 2766 2209  L 2766 2266  Q 2766 2663 2505 2880  Q 2244 3097 1772 3097  Q 1472 3097 1187 3025  Q 903 2953 641 2809  L 641 3341  Q 956 3463 1253 3523  Q 1550 3584 1831 3584  Q 2591 3584 2966 3190  Q 3341 2797 3341 1997  z "
       transform="scale(0.015625)" /><path
       id="DejaVuSans-6e"
       d="M 3513 2113  L 3513 0  L 2938 0  L 2938 2094  Q 2938 2591 2744 2837  Q 2550 3084 2163 3084  Q 1697 3084 1428 2787  Q 1159 2491 1159 1978  L 1159 0  L 581 0  L 581 3500  L 1159 3500  L 1159 2956  Q 1366 3272 1645 3428  Q 1925 3584 2291 3584  Q 2894 3584 3203 3211  Q 3513 2838 3513 2113  z "
       transform="scale(0.015625)" /><path
       id="DejaVuSans-64"
       d="M 2906 2969  L 2906 4863  L 3481 4863  L 3481 0  L 2906 0  L 2906 525  Q 2725 213 2448 61  Q 2172 -91 1784 -91  Q 1150 -91 751 415  Q 353 922 353 1747  Q 353 2572 751 3078  Q 1150 3584 1784 3584  Q 2172 3584 2448 3432  Q 2725 3281 2906 2969  z M 947 1747  Q 947 1113 1208 752  Q 1469 391 1925 391  Q 2381 391 2643 752  Q 2906 1113 2906 1747  Q 2906 2381 2643 2742  Q 2381 3103 1925 3103  Q 1469 3103 1208 2742  Q 947 2381 947 1747  z "
       transform="scale(0.015625)" /><path
       id="DejaVuSans-46"
       d="M 628 4666  L 3309 4666  L 3309 4134  L 1259 4134  L 1259 2759  L 3109 2759  L 3109 2228  L 1259 2228  L 1259 0  L 628 0  L 628 4666  z "
       transform="scale(0.015625)" /><path
       id="DejaVuSans-72"
       d="M 2631 2963  Q 2534 3019 2420 3045  Q 2306 3072 2169 3072  Q 1681 3072 1420 2755  Q 1159 2438 1159 1844  L 1159 0  L 581 0  L 581 3500  L 1159 3500  L 1159 2956  Q 1341 3275 1631 3429  Q 1922 3584 2338 3584  Q 2397 3584 2469 3576  Q 2541 3569 2628 3553  L 2631 2963  z "
       transform="scale(0.015625)" /><path
       id="DejaVuSans-71"
       d="M 947 1747  Q 947 1113 1208 752  Q 1469 391 1925 391  Q 2381 391 2643 752  Q 2906 1113 2906 1747  Q 2906 2381 2643 2742  Q 2381 3103 1925 3103  Q 1469 3103 1208 2742  Q 947 2381 947 1747  z M 2906 525  Q 2725 213 2448 61  Q 2172 -91 1784 -91  Q 1150 -91 751 415  Q 353 922 353 1747  Q 353 2572 751 3078  Q 1150 3584 1784 3584  Q 2172 3584 2448 3432  Q 2725 3281 2906 2969  L 2906 3500  L 3481 3500  L 3481 -1331  L 2906 -1331  L 2906 525  z "
       transform="scale(0.015625)" /><path
       id="DejaVuSans-75"
       d="M 544 1381  L 544 3500  L 1119 3500  L 1119 1403  Q 1119 906 1312 657  Q 1506 409 1894 409  Q 2359 409 2629 706  Q 2900 1003 2900 1516  L 2900 3500  L 3475 3500  L 3475 0  L 2900 0  L 2900 538  Q 2691 219 2414 64  Q 2138 -91 1772 -91  Q 1169 -91 856 284  Q 544 659 544 1381  z M 1991 3584  L 1991 3584  z "
       transform="scale(0.015625)" /><path
       id="DejaVuSans-63"
       d="M 3122 3366  L 3122 2828  Q 2878 2963 2633 3030  Q 2388 3097 2138 3097  Q 1578 3097 1268 2742  Q 959 2388 959 1747  Q 959 1106 1268 751  Q 1578 397 2138 397  Q 2388 397 2633 464  Q 2878 531 3122 666  L 3122 134  Q 2881 22 2623 -34  Q 2366 -91 2075 -91  Q 1284 -91 818 406  Q 353 903 353 1747  Q 353 2603 823 3093  Q 1294 3584 2113 3584  Q 2378 3584 2631 3529  Q 2884 3475 3122 3366  z "
       transform="scale(0.015625)" /><path
       id="DejaVuSans-79"
       d="M 2059 -325  Q 1816 -950 1584 -1140  Q 1353 -1331 966 -1331  L 506 -1331  L 506 -850  L 844 -850  Q 1081 -850 1212 -737  Q 1344 -625 1503 -206  L 1606 56  L 191 3500  L 800 3500  L 1894 763  L 2988 3500  L 3597 3500  L 2059 -325  z "
       transform="scale(0.015625)" /><path
       id="DejaVuSans-38"
       d="M 2034 2216  Q 1584 2216 1326 1975  Q 1069 1734 1069 1313  Q 1069 891 1326 650  Q 1584 409 2034 409  Q 2484 409 2743 651  Q 3003 894 3003 1313  Q 3003 1734 2745 1975  Q 2488 2216 2034 2216  z M 1403 2484  Q 997 2584 770 2862  Q 544 3141 544 3541  Q 544 4100 942 4425  Q 1341 4750 2034 4750  Q 2731 4750 3128 4425  Q 3525 4100 3525 3541  Q 3525 3141 3298 2862  Q 3072 2584 2669 2484  Q 3125 2378 3379 2068  Q 3634 1759 3634 1313  Q 3634 634 3220 271  Q 2806 -91 2034 -91  Q 1263 -91 848 271  Q 434 634 434 1313  Q 434 1759 690 2068  Q 947 2378 1403 2484  z M 1172 3481  Q 1172 3119 1398 2916  Q 1625 2713 2034 2713  Q 2441 2713 2670 2916  Q 2900 3119 2900 3481  Q 2900 3844 2670 4047  Q 2441 4250 2034 4250  Q 1625 4250 1398 4047  Q 1172 3844 1172 3481  z "
       transform="scale(0.015625)" /><path
       id="DejaVuSans-37"
       d="M 525 4666  L 3525 4666  L 3525 4397  L 1831 0  L 1172 0  L 2766 4134  L 525 4134  L 525 4666  z "
       transform="scale(0.015625)" /><path
       id="DejaVuSans-36"
       d="M 2113 2584  Q 1688 2584 1439 2293  Q 1191 2003 1191 1497  Q 1191 994 1439 701  Q 1688 409 2113 409  Q 2538 409 2786 701  Q 3034 994 3034 1497  Q 3034 2003 2786 2293  Q 2538 2584 2113 2584  z M 3366 4563  L 3366 3988  Q 3128 4100 2886 4159  Q 2644 4219 2406 4219  Q 1781 4219 1451 3797  Q 1122 3375 1075 2522  Q 1259 2794 1537 2939  Q 1816 3084 2150 3084  Q 2853 3084 3261 2657  Q 3669 2231 3669 1497  Q 3669 778 3244 343  Q 2819 -91 2113 -91  Q 1303 -91 875 529  Q 447 1150 447 2328  Q 447 3434 972 4092  Q 1497 4750 2381 4750  Q 2619 4750 2861 4703  Q 3103 4656 3366 4563  z "
       transform="scale(0.015625)" /><path
       id="DejaVuSans-43"
       d="M 4122 4306  L 4122 3641  Q 3803 3938 3442 4084  Q 3081 4231 2675 4231  Q 1875 4231 1450 3742  Q 1025 3253 1025 2328  Q 1025 1406 1450 917  Q 1875 428 2675 428  Q 3081 428 3442 575  Q 3803 722 4122 1019  L 4122 359  Q 3791 134 3420 21  Q 3050 -91 2638 -91  Q 1578 -91 968 557  Q 359 1206 359 2328  Q 359 3453 968 4101  Q 1578 4750 2638 4750  Q 3056 4750 3426 4639  Q 3797 4528 4122 4306  z "
       transform="scale(0.015625)" /><path
       id="DejaVuSans-53"
       d="M 3425 4513  L 3425 3897  Q 3066 4069 2747 4153  Q 2428 4238 2131 4238  Q 1616 4238 1336 4038  Q 1056 3838 1056 3469  Q 1056 3159 1242 3001  Q 1428 2844 1947 2747  L 2328 2669  Q 3034 2534 3370 2195  Q 3706 1856 3706 1288  Q 3706 609 3251 259  Q 2797 -91 1919 -91  Q 1588 -91 1214 -16  Q 841 59 441 206  L 441 856  Q 825 641 1194 531  Q 1563 422 1919 422  Q 2459 422 2753 634  Q 3047 847 3047 1241  Q 3047 1584 2836 1778  Q 2625 1972 2144 2069  L 1759 2144  Q 1053 2284 737 2584  Q 422 2884 422 3419  Q 422 4038 858 4394  Q 1294 4750 2059 4750  Q 2388 4750 2728 4690  Q 3069 4631 3425 4513  z "
       transform="scale(0.015625)" /><path
       id="DejaVuSans-44"
       d="M 1259 4147  L 1259 519  L 2022 519  Q 2988 519 3436 956  Q 3884 1394 3884 2338  Q 3884 3275 3436 3711  Q 2988 4147 2022 4147  L 1259 4147  z M 628 4666  L 1925 4666  Q 3281 4666 3915 4102  Q 4550 3538 4550 2338  Q 4550 1131 3912 565  Q 3275 0 1925 0  L 628 0  L 628 4666  z "
       transform="scale(0.015625)" /><path
       id="DejaVuSans-42"
       d="M 1259 2228  L 1259 519  L 2272 519  Q 2781 519 3026 730  Q 3272 941 3272 1375  Q 3272 1813 3026 2020  Q 2781 2228 2272 2228  L 1259 2228  z M 1259 4147  L 1259 2741  L 2194 2741  Q 2656 2741 2882 2914  Q 3109 3088 3109 3444  Q 3109 3797 2882 3972  Q 2656 4147 2194 4147  L 1259 4147  z M 628 4666  L 2241 4666  Q 2963 4666 3353 4366  Q 3744 4066 3744 3513  Q 3744 3084 3544 2831  Q 3344 2578 2956 2516  Q 3422 2416 3680 2098  Q 3938 1781 3938 1306  Q 3938 681 3513 340  Q 3088 0 2303 0  L 628 0  L 628 4666  z "
       transform="scale(0.015625)" /><clipPath
       id="p66aa199011"><rect
         x="58.523438"
         y="7.2"
         width="371.494832"
         height="107.64327"
         id="rect111" /></clipPath><clipPath
       id="p4f81e921cb"><rect
         x="58.523438"
         y="151.2"
         width="371.494832"
         height="107.64327"
         id="rect112" /></clipPath><style
       type="text/css"
       id="style1-6">*{stroke-linejoin: round; stroke-linecap: butt}</style><path
       id="ma9689a8048"
       d="M 0 0  L 0 3.5  "
       style="stroke: #000000; stroke-width: 0.8" /><path
       id="DejaVuSans-2212-8"
       d="M 678 2272  L 4684 2272  L 4684 1741  L 678 1741  L 678 2272  z "
       transform="scale(0.015625)" /><path
       id="DejaVuSans-36-4"
       d="M 2113 2584  Q 1688 2584 1439 2293  Q 1191 2003 1191 1497  Q 1191 994 1439 701  Q 1688 409 2113 409  Q 2538 409 2786 701  Q 3034 994 3034 1497  Q 3034 2003 2786 2293  Q 2538 2584 2113 2584  z M 3366 4563  L 3366 3988  Q 3128 4100 2886 4159  Q 2644 4219 2406 4219  Q 1781 4219 1451 3797  Q 1122 3375 1075 2522  Q 1259 2794 1537 2939  Q 1816 3084 2150 3084  Q 2853 3084 3261 2657  Q 3669 2231 3669 1497  Q 3669 778 3244 343  Q 2819 -91 2113 -91  Q 1303 -91 875 529  Q 447 1150 447 2328  Q 447 3434 972 4092  Q 1497 4750 2381 4750  Q 2619 4750 2861 4703  Q 3103 4656 3366 4563  z "
       transform="scale(0.015625)" /><path
       id="DejaVuSans-34-9"
       d="M 2419 4116  L 825 1625  L 2419 1625  L 2419 4116  z M 2253 4666  L 3047 4666  L 3047 1625  L 3713 1625  L 3713 1100  L 3047 1100  L 3047 0  L 2419 0  L 2419 1100  L 313 1100  L 313 1709  L 2253 4666  z "
       transform="scale(0.015625)" /><path
       id="DejaVuSans-32-7"
       d="M 1228 531  L 3431 531  L 3431 0  L 469 0  L 469 531  Q 828 903 1448 1529  Q 2069 2156 2228 2338  Q 2531 2678 2651 2914  Q 2772 3150 2772 3378  Q 2772 3750 2511 3984  Q 2250 4219 1831 4219  Q 1534 4219 1204 4116  Q 875 4013 500 3803  L 500 4441  Q 881 4594 1212 4672  Q 1544 4750 1819 4750  Q 2544 4750 2975 4387  Q 3406 4025 3406 3419  Q 3406 3131 3298 2873  Q 3191 2616 2906 2266  Q 2828 2175 2409 1742  Q 1991 1309 1228 531  z "
       transform="scale(0.015625)" /><path
       id="DejaVuSans-30-1"
       d="M 2034 4250  Q 1547 4250 1301 3770  Q 1056 3291 1056 2328  Q 1056 1369 1301 889  Q 1547 409 2034 409  Q 2525 409 2770 889  Q 3016 1369 3016 2328  Q 3016 3291 2770 3770  Q 2525 4250 2034 4250  z M 2034 4750  Q 2819 4750 3233 4129  Q 3647 3509 3647 2328  Q 3647 1150 3233 529  Q 2819 -91 2034 -91  Q 1250 -91 836 529  Q 422 1150 422 2328  Q 422 3509 836 4129  Q 1250 4750 2034 4750  z "
       transform="scale(0.015625)" /><path
       id="m9536e40cac"
       d="M 0 0  L -3.5 0  "
       style="stroke: #000000; stroke-width: 0.8" /><clipPath
       id="pb2412e533a"><rect
         x="28.942188"
         y="7.2"
         width="446.4"
         height="443.52"
         id="rect39" /></clipPath><style
       type="text/css"
       id="style1-5">*{stroke-linejoin: round; stroke-linecap: butt}</style><path
       id="ma07fe90147"
       d="M 0 3  C 0.795609 3 1.55874 2.683901 2.12132 2.12132  C 2.683901 1.55874 3 0.795609 3 0  C 3 -0.795609 2.683901 -1.55874 2.12132 -2.12132  C 1.55874 -2.683901 0.795609 -3 0 -3  C -0.795609 -3 -1.55874 -2.683901 -2.12132 -2.12132  C -2.683901 -1.55874 -3 -0.795609 -3 0  C -3 0.795609 -2.683901 1.55874 -2.12132 2.12132  C -1.55874 2.683901 -0.795609 3 0 3  z "
       style="stroke: #1f77b4" /><path
       id="m34c570b5c6"
       d="M 0 0  L 0 3.5  "
       style="stroke: #000000; stroke-width: 0.8" /><path
       id="DejaVuSans-2212-3"
       d="M 678 2272  L 4684 2272  L 4684 1741  L 678 1741  L 678 2272  z "
       transform="scale(0.015625)" /><path
       id="DejaVuSans-34-1"
       d="M 2419 4116  L 825 1625  L 2419 1625  L 2419 4116  z M 2253 4666  L 3047 4666  L 3047 1625  L 3713 1625  L 3713 1100  L 3047 1100  L 3047 0  L 2419 0  L 2419 1100  L 313 1100  L 313 1709  L 2253 4666  z "
       transform="scale(0.015625)" /><path
       id="DejaVuSans-32-4"
       d="M 1228 531  L 3431 531  L 3431 0  L 469 0  L 469 531  Q 828 903 1448 1529  Q 2069 2156 2228 2338  Q 2531 2678 2651 2914  Q 2772 3150 2772 3378  Q 2772 3750 2511 3984  Q 2250 4219 1831 4219  Q 1534 4219 1204 4116  Q 875 4013 500 3803  L 500 4441  Q 881 4594 1212 4672  Q 1544 4750 1819 4750  Q 2544 4750 2975 4387  Q 3406 4025 3406 3419  Q 3406 3131 3298 2873  Q 3191 2616 2906 2266  Q 2828 2175 2409 1742  Q 1991 1309 1228 531  z "
       transform="scale(0.015625)" /><path
       id="DejaVuSans-30-3"
       d="M 2034 4250  Q 1547 4250 1301 3770  Q 1056 3291 1056 2328  Q 1056 1369 1301 889  Q 1547 409 2034 409  Q 2525 409 2770 889  Q 3016 1369 3016 2328  Q 3016 3291 2770 3770  Q 2525 4250 2034 4250  z M 2034 4750  Q 2819 4750 3233 4129  Q 3647 3509 3647 2328  Q 3647 1150 3233 529  Q 2819 -91 2034 -91  Q 1250 -91 836 529  Q 422 1150 422 2328  Q 422 3509 836 4129  Q 1250 4750 2034 4750  z "
       transform="scale(0.015625)" /><path
       id="m941f70e7ed"
       d="M 0 0  L -3.5 0  "
       style="stroke: #000000; stroke-width: 0.8" /><path
       id="DejaVuSans-35-7"
       d="M 691 4666  L 3169 4666  L 3169 4134  L 1269 4134  L 1269 2991  Q 1406 3038 1543 3061  Q 1681 3084 1819 3084  Q 2600 3084 3056 2656  Q 3513 2228 3513 1497  Q 3513 744 3044 326  Q 2575 -91 1722 -91  Q 1428 -91 1123 -41  Q 819 9 494 109  L 494 744  Q 775 591 1075 516  Q 1375 441 1709 441  Q 2250 441 2565 725  Q 2881 1009 2881 1497  Q 2881 1984 2565 2268  Q 2250 2553 1709 2553  Q 1456 2553 1204 2497  Q 953 2441 691 2322  L 691 4666  z "
       transform="scale(0.015625)" /><path
       id="DejaVuSans-31-5"
       d="M 794 531  L 1825 531  L 1825 4091  L 703 3866  L 703 4441  L 1819 4666  L 2450 4666  L 2450 531  L 3481 531  L 3481 0  L 794 0  L 794 531  z "
       transform="scale(0.015625)" /><clipPath
       id="p8a9cc2f78e"><rect
         x="33.2875"
         y="84.962157"
         width="269.736585"
         height="269.736585"
         id="rect1126" /></clipPath><clipPath
       id="pa2e619320d"><rect
         x="33.2875"
         y="9.098742"
         width="269.736585"
         height="67.434146"
         id="rect1127" /></clipPath><clipPath
       id="p872b0ae1fe"><rect
         x="311.453354"
         y="84.962157"
         width="67.434146"
         height="269.736585"
         id="rect1128" /></clipPath><filter
       id="p"
       width="1.3472477"
       height="1.3472477"
       x="-0.17362387"
       y="-0.17362387"
       style="color-interpolation-filters:sRGB">
            <feFlood
   flood-color="#000"
   flood-opacity=".329"
   result="flood"
   id="feFlood4" />
            <feGaussianBlur
   in="SourceGraphic"
   result="blur"
   stdDeviation="12.4"
   id="feGaussianBlur4" />
            <feOffset
   in="blur"
   result="offset"
   id="feOffset4" />
            <feComposite
   in="flood"
   in2="offset"
   operator="in"
   result="comp1"
   id="feComposite5-7" />
            <feComposite
   in="SourceGraphic"
   in2="comp1"
   result="comp2"
   id="feComposite6-5" />
        </filter></defs><g
     inkscape:label="Capa 1"
     inkscape:groupmode="layer"
     id="layer1"
     transform="translate(-295.75001)"><rect
       style="fill:#f7f7f2;fill-opacity:1;stroke:none;stroke-width:1.05833;stroke-opacity:0.0896032"
       id="rect22"
       width="285.75"
       height="285.75"
       x="295.75"
       y="0" /><g
       id="g13"
       transform="matrix(-0.91389418,-0.40731381,-0.33866403,1.4311636,526.17222,-22.747213)"
       style="stroke:#4d4d4d;stroke-width:1.00732;stroke-opacity:0.0896032"><path
         d="m -78.535422,64.601676 c -7.59142,16.331142 -6.1558,26.569987 4.306094,30.716537 15.693231,6.219827 53.008477,8.707697 68.6061932,22.200127 C 9.9740522,131.0105 57.532112,120.5801 65.665668,97.423238 73.799224,74.266376 88.443644,38.574085 11.222092,38.574085 c -51.481566,0 -81.40012,8.675687 -89.757249,26.027591 z"
         fill="#fffa72"
         fill-rule="nonzero"
         id="path1"
         style="fill:none;stroke:#4d4d4d;stroke-width:0.266519;stroke-opacity:0.0896032" /><path
         d="m -190.24628,96.846341 c 5.14462,45.727199 25.7163,74.395959 61.71283,86.006299 53.99589,17.41551 162.500432,24.38157 227.98564,62.16036 65.48329,37.77806 181.78428,8.57292 167.12329,-56.26629 C 251.9145,123.9075 235.2194,23.969085 18.999051,23.969085 c -144.148381,0 -213.895381,24.291925 -209.244591,72.877256 z"
         fill="#FFFA72"
         fill-rule="nonzero"
         style="fill:none;stroke:#4d4d4d;stroke-width:0.746253;stroke-opacity:0.0896032"
         id="path2" /><path
         d="m -181.86796,94.159285 c 2.41158,43.277525 20.34051,70.410465 53.78469,81.398815 50.167331,16.48254 152.484766,23.07541 212.431561,58.83035 C 144.2933,270.14268 255.93339,242.5021 245.54235,181.13642 235.15135,119.77074 224.72144,25.186168 20.084319,25.186168 c -136.426149,0 -203.742179,22.990572 -201.951579,68.973117 z"
         fill="#FFFA72"
         fill-rule="nonzero"
         style="fill:none;stroke:#4d4d4d;stroke-width:0.706276;stroke-opacity:0.0896032"
         id="path3" /><path
         d="m -173.27733,91.47223 c 0.0598,40.82785 15.58498,66.42497 46.57362,76.79134 46.483958,15.54956 142.672358,21.76925 197.395705,55.50032 54.721725,33.73041 161.457415,7.6544 154.795765,-50.23776 C 218.82608,115.63398 213.82818,26.403252 20.774286,26.403252 c -128.703916,0 -193.386446,21.689218 -194.050956,65.068978 z"
         fill="#FFFA72"
         fill-rule="nonzero"
         style="fill:none;stroke:#4d4d4d;stroke-width:0.666298;stroke-opacity:0.0896032"
         id="path4" /><path
         d="m -164.4924,88.785175 c -1.94309,38.378185 11.39715,62.439465 40.01886,72.183865 42.933478,14.61658 133.0460042,20.46309 182.834192,52.17029 49.786698,31.70659 151.395168,7.19514 147.968068,-47.22348 -3.42707,-54.41863 -3.75563,-138.295515 -185.226272,-138.295515 -120.98168,0 -182.845348,20.387865 -185.594228,61.16484 z"
         fill="#FFFA72"
         fill-rule="nonzero"
         style="fill:none;stroke:#4d4d4d;stroke-width:0.62632;stroke-opacity:0.0896032"
         id="path5" /><path
         d="m -155.52831,86.098119 c -3.62423,35.928511 7.73276,58.453971 34.0692,67.576381 39.505538,13.68362 123.5912012,19.15694 168.71003,48.84028 45.117448,29.68276 141.39321,6.73587 140.74453,-44.20922 -0.64868,-50.9451 2.989,-129.468142 -166.898423,-129.468142 -113.259449,0 -172.133337,19.086513 -176.624757,57.260701 z"
         fill="#FFFA72"
         fill-rule="nonzero"
         style="fill:none;stroke:#4d4d4d;stroke-width:0.586342;stroke-opacity:0.0896032"
         id="path6" /><path
         d="m -146.39784,83.411064 c -5.00658,33.478836 4.55447,54.468476 28.68151,62.968896 36.191388,12.75065 114.2957112,17.85079 154.99203,45.51026 40.695048,27.65894 131.44726,6.27661 133.15332,-41.19495 1.70606,-47.47157 8.65699,-120.640768 -149.647215,-120.640768 -105.537207,0 -161.262605,17.785159 -167.179095,53.356562 z"
         fill="#FFFA72"
         fill-rule="nonzero"
         style="fill:none;stroke:#4d4d4d;stroke-width:0.546364;stroke-opacity:0.0896032"
         id="path7" /><path
         d="m -137.11173,80.724008 c -6.10947,31.029172 1.83086,50.482972 23.81947,58.361422 32.983668,11.81767 105.1492252,16.54463 141.653928,42.18024 36.503562,25.63511 121.553732,5.81734 125.218242,-38.18069 3.6645,-43.998042 13.31785,-111.813395 -133.403106,-111.813395 -97.814976,0 -150.243404,16.483806 -157.288034,49.452423 z"
         fill="#FFFA72"
         fill-rule="nonzero"
         style="fill:none;stroke:#4d4d4d;stroke-width:0.506386;stroke-opacity:0.0896032"
         id="path8" /><path
         d="m -127.67902,78.036953 c -6.94907,28.579497 -0.4644,46.497477 19.45263,53.753937 29.876227,10.8847 96.143117,15.23848 128.67372,38.85023 32.529573,23.61128 111.70953,5.35807 116.95921,-35.16643 5.24965,-40.524512 17.03001,-102.986022 -118.107724,-102.986022 -90.092741,0 -139.084336,15.182453 -146.977376,45.548285 z"
         fill="#FFFA72"
         fill-rule="nonzero"
         style="fill:none;stroke:#4d4d4d;stroke-width:0.466409;stroke-opacity:0.0896032"
         id="path9" /><path
         d="m -118.10721,75.349898 c -7.53888,26.129822 -2.35326,42.511982 15.5556,49.146462 26.863925,9.95172 87.270204,13.93232 116.033077,35.5202 28.761951,21.58746 101.912183,4.89882 108.392783,-32.15216 6.4806,-37.050983 19.84206,-94.158648 -103.712423,-94.158648 -82.370506,0 -127.792577,13.881099 -136.268607,41.644146 z"
         fill="#FFFA72"
         fill-rule="nonzero"
         style="fill:none;stroke:#4d4d4d;stroke-width:0.42643;stroke-opacity:0.0896032"
         id="path10" /><path
         d="m -108.40248,72.662842 c -7.89001,23.680155 -3.85379,38.526478 12.107508,44.538978 23.942522,9.01875 78.524554,12.62617 103.7168962,32.19019 25.1915208,19.56363 92.1595938,4.43955 99.5326858,-29.1379 7.37309,-33.577453 21.79399,-85.331275 -90.17726,-85.331275 -74.648271,0 -116.374022,12.579747 -125.17944,37.740007 z"
         fill="#FFFA72"
         fill-rule="nonzero"
         style="fill:none;stroke:#4d4d4d;stroke-width:0.386453;stroke-opacity:0.0896032"
         id="path11" /><path
         d="m -98.569832,69.975787 c -8.011418,21.230484 -4.980588,34.540983 9.09148,39.931493 21.108614,8.08578 69.901391,11.32002 91.7129872,28.86017 21.8108798,17.53981 82.4500478,3.98029 90.3899288,-26.12363 7.939856,-30.103923 22.918156,-76.503902 -77.46988,-76.503902 -66.926036,0 -104.833426,11.278394 -113.724166,33.835869 z"
         fill="#FFFA72"
         fill-rule="nonzero"
         style="fill:none;stroke:#4d4d4d;stroke-width:0.346475;stroke-opacity:0.0896032"
         id="path12" /><path
         d="m -88.613172,67.288731 c -7.91015,18.780813 -5.74508,30.555486 6.49429,35.324019 18.359513,7.1528 61.396961,10.01386 80.0117922,25.53015 18.6142078,15.51598 72.7822648,3.52102 80.9731348,-23.10937 8.190892,-26.630394 23.239865,-67.676529 -65.564921,-67.676529 -59.203801,0 -93.174536,9.977041 -101.913986,29.93173 z"
         fill="#FFFA72"
         fill-rule="nonzero"
         style="fill:none;stroke:#4d4d4d;stroke-width:0.306497;stroke-opacity:0.0896032"
         id="path13" /></g><text
       xml:space="preserve"
       style="font-style:italic;font-variant:normal;font-weight:900;font-stretch:normal;font-size:27.3914px;line-height:1.2;font-family:Silka;-inkscape-font-specification:'Silka Heavy Italic';text-align:center;text-decoration-color:#000000;letter-spacing:0px;text-anchor:middle;fill:#4d4d4d;stroke-width:0.380437;paint-order:stroke fill markers"
       x="438.83469"
       y="260.35028"
       id="text2"><tspan
         sodipodi:role="line"
         style="fill:#4d4d4d;stroke-width:0.380437"
         x="438.83469"
         y="260.35028"
         id="tspan3">is available now!</tspan></text><text
       xml:space="preserve"
       style="font-style:normal;font-variant:normal;font-weight:normal;font-stretch:normal;font-size:32.7822px;line-height:1.2;font-family:Silka;-inkscape-font-specification:Silka;text-align:center;text-decoration-color:#000000;letter-spacing:0px;text-anchor:middle;fill:#fafafa;stroke-width:0.455306;paint-order:stroke fill markers"
       x="459.0007"
       y="101.3353"
       id="text1"><tspan
         sodipodi:role="line"
         id="tspan1"
         style="font-style:italic;font-variant:normal;font-weight:900;font-stretch:normal;font-family:Silka;-inkscape-font-specification:'Silka Heavy Italic';fill:#aa0000;stroke-width:0.455306"
         x="459.0007"
         y="101.3353">EXECUTION</tspan></text><text
       xml:space="preserve"
       style="font-style:italic;font-variant:normal;font-weight:900;font-stretch:normal;font-size:33.4246px;line-height:1.2;font-family:Silka;-inkscape-font-specification:'Silka Heavy Italic';text-align:center;text-decoration-color:#000000;letter-spacing:0px;text-anchor:middle;fill:#aa0000;stroke-width:0.464229;paint-order:stroke fill markers"
       x="408.23932"
       y="73.98761"
       id="text4"><tspan
         sodipodi:role="line"
         id="tspan4"
         style="stroke-width:0.464229"
         x="408.23932"
         y="73.98761">REMOTE</tspan></text><path
       fill="currentColor"
       d="m 505.69909,195.36757 h 4.24892 c 1.15878,0 2.12445,0.41845 2.89697,1.25535 0.77252,0.8369 1.15879,1.83476 1.15879,2.99355 h 69.96013 v 8.11155 h -69.96013 c 0,1.15879 -0.38627,2.15664 -1.15879,2.99354 -0.77252,0.83691 -1.73819,1.25536 -2.89697,1.25536 h -16.60937 c -1.15879,0 -2.12445,-0.41845 -2.89698,-1.25536 -0.77254,-0.8369 -1.15879,-1.83475 -1.15879,-2.99354 H 342.8392 v -8.11155 h 146.44367 c 0,-1.15879 0.38625,-2.15665 1.15879,-2.99355 0.77253,-0.8369 1.73819,-1.25535 2.89698,-1.25535 h 4.24891 v -8.11155 h -28.96981 c -1.15879,0 -2.12445,-0.41845 -2.89698,-1.25536 -0.77253,-0.83689 -1.15879,-1.83475 -1.15879,-2.99354 v -16.41624 c 0,-1.15878 0.38626,-2.12445 1.15879,-2.89697 0.77253,-0.77253 1.73819,-1.1588 2.89698,-1.1588 h 66.05116 c 1.15879,0 2.12446,0.38627 2.89698,1.1588 0.77253,0.77252 1.1588,1.73819 1.1588,2.89697 v 16.41624 c 0,1.15879 -0.38627,2.15665 -1.1588,2.99354 -0.77252,0.83691 -1.73819,1.25536 -2.89698,1.25536 h -28.96981 z m -37.08135,-65.85804 h 66.05116 c 1.15879,0 2.12446,0.38626 2.89698,1.15879 0.77253,0.77253 1.1588,1.73819 1.1588,2.89698 v 16.60937 c 0,1.15878 -0.38627,2.12445 -1.1588,2.89698 -0.77252,0.77252 -1.73819,1.15879 -2.89698,1.15879 h -66.05116 c -1.15879,0 -2.12445,-0.38627 -2.89698,-1.15879 -0.77253,-0.77253 -1.15879,-1.7382 -1.15879,-2.89698 V 133.5653 c 0,-1.15879 0.38626,-2.12445 1.15879,-2.89698 0.77253,-0.77253 1.73819,-1.15879 2.89698,-1.15879 z m 20.66513,16.41623 h 4.05577 v -8.11155 h -4.05577 z m 0,33.02559 h 4.05577 v -8.30468 h -4.05577 z m -16.41622,-41.13714 v 8.11155 h 8.11154 v -8.11155 z m 0,32.83246 v 8.30468 h 8.11154 v -8.30468 z"
       id="path1-1"
       style="fill:#006680;stroke-width:0.193132"
       sodipodi:nodetypes="cssccccssssccccssccssssssssssssccssssssssssssscccccccccccccccccccc" /><g
       style="stroke-width:0.844676;filter:url(#p)"
       transform="matrix(0.50479679,0,0,0.50479679,-6.7381109,89.186291)"
       id="g31">
        <rect
   width="171.405"
   height="171.405"
   x="672.65997"
   y="76.110001"
   rx="31.805"
   style="fill:#ffffff;stroke-width:0.844676"
   id="rect29" />
        <path
   d="m 816.872,152.216 a 1.916,1.916 0 0 1 1.807,2.067 v 5.546 a 1.68,1.68 0 0 1 -1.933,1.933 h -23.99 c -5.933,0 -9.412,2.058 -9.412,6.722 v 1.68 c 0,3.614 1.68,6.723 8,9.025 l 17.15,6.84 c 11.857,4.488 12.89,11.076 12.89,18.151 v 1.42 c 0,14.445 -8.638,17.277 -26.049,17.277 -11.218,0 -21.402,-0.9 -23.595,-1.16 -1.546,-0.126 -1.933,-0.899 -1.933,-1.933 v -5.672 a 1.68,1.68 0 0 1 1.933,-1.932 h 23.856 c 10.319,0 13.537,-1.16 13.537,-6.723 v -1.546 c 0,-3.74 -1.546,-6.193 -7.479,-8.638 l -18.31,-6.966 c -9.924,-3.807 -12.377,-11.328 -12.377,-18.42 v -2.714 c 0,-14.184 12.377,-16.117 26.175,-16.117 a 164,164 0 0 1 19.73,1.16"
   style="fill:#303030;stroke-width:0.844676"
   id="path30" />
        <path
   d="m 811.04,104.117 a 21.23,21.23 0 0 0 -13.444,-4.773 h -81.047 a 21.3,21.3 0 0 0 -9.933,2.454 21.6,21.6 0 0 0 -8.613,8.344 c -0.386,0.689 -0.73,1.395 -1.05,2.1 -0.185,0.496 -0.395,0.967 -0.563,1.446 a 22.6,22.6 0 0 0 -1.16,6.95 v 81.072 a 21.3,21.3 0 0 0 21.319,21.301 h 43.275 a 1.15,1.15 0 0 0 1.151,-1.151 v -5.168 a 1.15,1.15 0 0 0 -1.15,-1.151 h -5.614 l -16.806,-33.957 38.242,-50.678 a 4.3,4.3 0 0 0 0.714,-1.488 l 35.04,5.361 v 7.883 a 1.16,1.16 0 0 0 1.152,1.15 h 5.202 a 1.15,1.15 0 0 0 1.142,-1.15 v -22.025 a 21.22,21.22 0 0 0 -7.856,-16.52 m -44.132,2.722 1.807,14.445 -28.327,-4.336 -1.277,-10.083 z m -50.36,0 h 15.613 l 1.118,9.034 -20.697,-3.168 -6.529,-1.009 a 13.72,13.72 0 0 1 10.496,-4.857 m 15.765,15.865 -14.437,19.201 -11.436,-23.167 z m -29.587,4.101 9.243,18.756 -9.243,1.134 z m 0,26.89 12.47,-1.58 12.915,26.15 -25.394,3.193 z m 43.78,61.896 H 717.7 a 15.016,15.016 0 0 1 -14.974,-14.982 v -12.193 l 28.612,-3.588 z m -12.462,-40.897 -12.773,-25.881 18.772,-24.873 v -0.042 l 28.949,4.428 z m 77.4,-46.88 -35.646,-5.454 -1.94,-15.52 h 22.62 a 15.016,15.016 0 0 1 14.966,14.974 z"
   style="fill:#8c0000;stroke-width:0.844676"
   id="path31" />
    </g><text
       xml:space="preserve"
       style="font-style:italic;font-variant:normal;font-weight:900;font-stretch:normal;font-size:33.4246px;line-height:1.2;font-family:Silka;-inkscape-font-specification:'Silka Heavy Italic';text-align:center;text-decoration-color:#000000;letter-spacing:0px;text-anchor:middle;fill:#aa0000;stroke-width:0.464229;paint-order:stroke fill markers"
       x="360.54605"
       y="46.181889"
       id="text3"><tspan
         sodipodi:role="line"
         id="tspan2"
         style="stroke-width:0.464229"
         x="360.54605"
         y="46.181889">EASY</tspan></text></g></svg>
