<?xml version="1.0" encoding="UTF-8" standalone="no"?>
<svg
   width="1280"
   height="720"
   viewBox="0 0 338.667 190.5"
   version="1.1"
   id="svg5"
   sodipodi:docname="bg_more_dark.svg"
   inkscape:version="1.3.2 (091e20ef0f, 2023-11-25, custom)"
   xmlns:inkscape="http://www.inkscape.org/namespaces/inkscape"
   xmlns:sodipodi="http://sodipodi.sourceforge.net/DTD/sodipodi-0.dtd"
   xmlns="http://www.w3.org/2000/svg"
   xmlns:svg="http://www.w3.org/2000/svg">
  <sodipodi:namedview
     id="namedview5"
     pagecolor="#ffffff"
     bordercolor="#000000"
     borderopacity="0.25"
     inkscape:showpageshadow="2"
     inkscape:pageopacity="0.0"
     inkscape:pagecheckerboard="0"
     inkscape:deskcolor="#d1d1d1"
     inkscape:zoom="0.56484375"
     inkscape:cx="640"
     inkscape:cy="359.39142"
     inkscape:window-width="1920"
     inkscape:window-height="1056"
     inkscape:window-x="3840"
     inkscape:window-y="0"
     inkscape:window-maximized="1"
     inkscape:current-layer="svg5" />
  <defs
     id="defs2">
    <filter
       id="a"
       width="1.9851755"
       height="1.9851755"
       x="-0.49258774"
       y="-0.49258774"
       style="color-interpolation-filters:sRGB">
      <feFlood
         flood-color="#000"
         flood-opacity=".329"
         result="flood"
         id="feFlood1" />
      <feGaussianBlur
         in="SourceGraphic"
         result="blur"
         stdDeviation="35.18"
         id="feGaussianBlur1" />
      <feOffset
         in="blur"
         result="offset"
         id="feOffset1" />
      <feComposite
         in="flood"
         in2="offset"
         operator="in"
         result="comp1"
         id="feComposite1" />
      <feComposite
         in="SourceGraphic"
         in2="comp1"
         result="comp2"
         id="feComposite2" />
    </filter>
  </defs>
  <path
     d="M612.8 95.102H422.594"
     style="stroke:#ffffff;stroke-width:0.6px;stroke-linecap:round;stroke-linejoin:round"
     transform="translate(-348.667)"
     id="path2" />
  <path
     d="M517.697 0v190.204"
     style="stroke-width:0.6px;stroke-linecap:round;stroke-linejoin:round;stroke:#ffffff"
     transform="translate(-348.667)"
     id="path3" />
  <g
     style="filter:url(#a)"
     transform="translate(-7.662 57.485)scale(.23339)"
     id="g5">
    <rect
       width="171.405"
       height="171.405"
       x="672.66"
       y="76.11"
       class="a"
       rx="31.805"
       style="fill:#fff;stroke-width:.844676"
       id="rect3" />
    <path
       d="M816.872 152.216a1.916 1.916 0 0 1 1.807 2.067v5.546a1.68 1.68 0 0 1-1.933 1.933h-23.99c-5.933 0-9.412 2.058-9.412 6.722v1.68c0 3.614 1.68 6.723 8 9.025l17.15 6.84c11.857 4.488 12.89 11.076 12.89 18.151v1.42c0 14.445-8.638 17.277-26.049 17.277-11.218 0-21.402-.9-23.595-1.16-1.546-.126-1.933-.899-1.933-1.933v-5.672a1.68 1.68 0 0 1 1.933-1.932h23.856c10.319 0 13.537-1.16 13.537-6.723v-1.546c0-3.74-1.546-6.193-7.479-8.638l-18.31-6.966c-9.924-3.807-12.377-11.328-12.377-18.42v-2.714c0-14.184 12.377-16.117 26.175-16.117a164 164 0 0 1 19.73 1.16"
       class="b"
       style="fill:#303030;stroke-width:.844676"
       id="path4" />
    <path
       d="M811.04 104.117a21.23 21.23 0 0 0-13.444-4.773h-81.047a21.3 21.3 0 0 0-9.933 2.454 21.6 21.6 0 0 0-8.613 8.344c-.386.689-.73 1.395-1.05 2.1-.185.496-.395.967-.563 1.446a22.6 22.6 0 0 0-1.16 6.95v81.072a21.3 21.3 0 0 0 21.319 21.301h43.275a1.15 1.15 0 0 0 1.151-1.151v-5.168a1.15 1.15 0 0 0-1.15-1.151h-5.614l-16.806-33.957 38.242-50.678a4.3 4.3 0 0 0 .714-1.488l35.04 5.361v7.883a1.16 1.16 0 0 0 1.152 1.15h5.202a1.15 1.15 0 0 0 1.142-1.15v-22.025a21.22 21.22 0 0 0-7.856-16.52m-44.132 2.722 1.807 14.445-28.327-4.336-1.277-10.083zm-50.36 0h15.613l1.118 9.034-20.697-3.168-6.529-1.009a13.72 13.72 0 0 1 10.496-4.857m15.765 15.865-14.437 19.201-11.436-23.167zm-29.587 4.101 9.243 18.756-9.243 1.134zm0 26.89 12.47-1.58 12.915 26.15-25.394 3.193zm43.78 61.896H717.7a15.016 15.016 0 0 1-14.974-14.982v-12.193l28.612-3.588zm-12.462-40.897-12.773-25.881 18.772-24.873v-.042l28.949 4.428zm77.4-46.88L775.8 122.36l-1.94-15.52h22.62a15.016 15.016 0 0 1 14.966 14.974z"
       class="c"
       style="fill:#8c0000;stroke-width:.844676"
       id="path5" />
  </g>
</svg>
