<svg xmlns="http://www.w3.org/2000/svg" xmlns:xlink="http://www.w3.org/1999/xlink" width="750" height="750">
    <desc>
        I created this logo and permit its free use on the same terms as the rest of Sympy&apos;s code and documentation.

Fredrik Johansson
    </desc>
    <defs>
        <linearGradient id="a">
            <stop offset="0" style="stop-color:#fff;stop-opacity:1"/>
            <stop offset="1" style="stop-color:#fff;stop-opacity:0"/>
        </linearGradient>
        <linearGradient xlink:href="#a" id="b" x1="123.534" x2="43.33" y1="182.213" y2="182.213" gradientUnits="userSpaceOnUse"/>
        <mask id="c">
            <path d="M43.331 182.213h81.203v185.818H43.331z" style="fill:url(#b)"/>
            <path d="M123.534 0h800v800h-800z" style="fill:#fff"/>
        </mask>
    </defs>
    <g style="font-size:160px;font-style:normal;font-weight:400;fill:#000;fill-opacity:1;stroke:#7d7d7d;stroke-width:1.99999976;stroke-linecap:butt;stroke-linejoin:miter;stroke-miterlimit:4;stroke-opacity:1;font-family:FreeSerif">
        <path d="M215.838 613.4q0-7.52-5.28-13.28-5.28-5.92-12.8-10.08t-15.04-8.48a45.9 45.9 0 0 1-12.64-11.36q-5.28-6.88-5.28-16 0-12.16 8.16-19.68 8.32-7.68 19.52-7.68 6.72 0 14.56 2.72t9.44 2.72q4.16 0 5.12-5.44h3.36l3.52 34.08h-4q-3.84-14.08-11.84-20.8-7.84-6.72-17.44-6.72-7.36 0-12 4.16t-4.64 10.72q0 6.4 5.44 12.16t18.08 12.8q15.84 8.48 22.88 16.8 7.04 8.16 7.04 18.08 0 12.32-9.44 20.8-9.44 8.32-23.2 8.32-8.001 0-16.32-2.72-8.16-2.72-10.08-2.72-1.76 0-3.04 1.6-1.281 1.44-1.44 3.68h-3.52l-4.8-33.92h3.68q5.92 14.56 13.76 21.44t18.56 6.88q8.8 0 14.24-4.96 5.44-5.12 5.44-13.12m46.135 43.04q4.48 0 9.44-9.92t4.96-14.56q0-3.52-7.04-16.16l-2.4-4.8-18.72-40.64q-1.92-4.16-8.16-5.12V563h32.96v2.4q-5.121.16-7.2 1.12-2.08.96-2.08 3.2 0 2.4 1.6 6.08l18.4 40.48 15.52-44.16q.64-1.44.64-2.72 0-4-7.68-4V563h21.6v2.4q-2.88.32-4.64 1.92-1.6 1.44-3.04 5.28l-24.64 65.28q-6.4 17.28-12.8 24.64-6.24 7.36-14.24 7.36-5.12 0-8.48-2.72-3.36-2.56-3.36-6.56 0-2.88 2.08-4.96t4.8-2.08q3.52 0 7.52 1.44t4.96 1.44m54.192-85.12v-2.72a289 289 0 0 0 22.4-7.2l1.12.32v12q9.92-7.52 14.72-9.92t10.08-2.4q12.64 0 16.96 13.44 12.48-13.44 26.08-13.44 18.56 0 18.56 28.48v32.96q0 8.96 6.88 9.44l4.16.32v2.4h-35.04v-2.4q7.04-.8 8.8-2.72t1.76-8.8v-33.76q0-9.92-2.56-13.76t-9.44-3.84q-10.56 0-17.44 9.76v40.32q0 7.52 2.24 10.08 2.4 2.56 9.28 2.72v2.4h-35.84v-2.4q6.88-.48 8.8-2.56 2.08-2.08 2.08-8.8v-34.72q0-16.8-10.56-16.8-4.16 0-8.8 1.92-4.64 1.76-7.68 4.48-2.4 2.4-2.4 3.04v45.12q0 4.64 2.24 6.4 2.24 1.6 8.64 1.92v2.4h-35.52v-2.4q6.72-.16 8.96-2.4t2.24-8.8v-40.48q0-5.76-1.28-8-1.12-2.24-4.32-2.24-2.4 0-5.12.64m208.055-13.28q0 4.16-.96 8t-3.84 8.16q-2.72 4.32-7.36 7.52-4.64 3.04-12.64 5.12t-18.56 2.08q-4.8 0-11.04-.48v29.12q0 8.8 2.72 11.52 2.88 2.56 12.32 2.88V635h-44.8v-3.04q9.12-.8 11.2-3.36 2.24-2.72 2.24-12.8v-69.28q0-8.64-2.24-11.04t-11.2-3.36v-3.04h42.24q7.2 0 13.92 1.44 6.72 1.28 13.28 4.32 6.72 3.04 10.72 8.96t4 14.24m-54.4-17.6v41.6q5.44.48 9.12.48 27.84 0 27.84-23.52 0-12.32-7.68-18.08-7.68-5.92-23.84-5.92-3.2 0-4.32 1.12t-1.12 4.32m80.903 116q4.48 0 9.44-9.92t4.96-14.56q0-3.52-7.04-16.16l-2.4-4.8-18.72-40.64q-1.92-4.16-8.16-5.12V563h32.96v2.4q-5.121.16-7.2 1.12-2.08.96-2.08 3.2 0 2.4 1.6 6.08l18.4 40.48 15.52-44.16q.64-1.44.64-2.72 0-4-7.68-4V563h21.6v2.4q-2.88.32-4.64 1.92-1.6 1.44-3.04 5.28l-24.64 65.28q-6.4 17.28-12.8 24.64-6.24 7.36-14.24 7.36-5.12 0-8.48-2.72-3.36-2.56-3.36-6.56 0-2.88 2.08-4.96t4.8-2.08q3.52 0 7.52 1.44t4.96 1.44" style="text-anchor:middle" transform="translate(-7 10)"/>
    </g>
    <g mask="url(#c)" transform="translate(-7 10)">
        <g style="display:inline">
            <path d="M170.921 334.283s-17.667-10.234-40.08-15.976c-22.413-5.741-26.896-4.243-49.573-6.99-22.677-2.745-41.135-3.993-41.135-3.993L39.08 228.44s33.08 3.744 59.448 7.988 27.927 4.493 46.026 8.987c18.098 4.493 26.368 8.986 26.368 8.986z" style="fill:#72ba45;fill-opacity:1;fill-rule:evenodd;stroke:#293720;stroke-width:8;stroke-linecap:butt;stroke-linejoin:miter;stroke-miterlimit:4;stroke-opacity:1;stroke-dasharray:none"/>
        </g>
        <path d="M162.55 277.048s-22.75-10.265-55-15.764-75-8.23-75-8.23l-.5-9.863s44.5 2.082 77.5 7.03c33 4.95 53 12.765 53 12.765z" style="fill:#c7e06d;fill-opacity:1;fill-rule:evenodd;stroke:#c7e06d;stroke-width:8;stroke-linecap:butt;stroke-linejoin:miter;stroke-miterlimit:4;stroke-opacity:.53947371;stroke-dasharray:none"/>
        <path d="M167.586 331.034s-13.25-9.404-45.5-16.035c-32.25-6.63-84.914-8.389-84.914-8.389l.414-30.091s44 .917 77 6.885c33 5.967 52.5 13.913 52.5 13.913z" style="fill:#2e642c;fill-opacity:1;fill-rule:evenodd;stroke:#000;stroke-width:0;stroke-linecap:butt;stroke-linejoin:miter;stroke-miterlimit:4;stroke-opacity:1;stroke-dasharray:none"/>
        <path d="M167.207 314.62s-13.25-10.3-45.5-14.74c-32.25-4.442-84.914-5.62-84.914-5.62l.414-20.155s44 3.614 77 7.611 52.5 14.32 52.5 14.32z" style="fill:#4f873b;fill-opacity:1;fill-rule:evenodd;stroke:#000;stroke-width:0;stroke-linecap:butt;stroke-linejoin:miter;stroke-miterlimit:4;stroke-opacity:1;stroke-dasharray:none"/>
        <g style="opacity:.647343">
            <path d="M151.32 278.787a16.97 18.385 0 1 1-33.94 0 16.97 18.385 0 1 1 33.94 0zm-67.881-9.899a20.506 21.213 0 1 1-41.013 0 20.506 21.213 0 1 1 41.013 0z" style="opacity:.5;fill:#3b4f87;fill-opacity:1;stroke:#066506;stroke-width:8;stroke-linejoin:bevel;stroke-miterlimit:4;stroke-opacity:1;stroke-dasharray:none;display:inline" transform="translate(6.126 4.939)"/>
        </g>
    </g>
    <path d="m172.63 123.731 200 60v270l-200-60z" style="fill:#decd85;fill-opacity:1;fill-rule:evenodd;stroke:#505050;stroke-width:8;stroke-linecap:butt;stroke-linejoin:miter;stroke-miterlimit:4;stroke-opacity:.61842107;stroke-dasharray:none" transform="translate(-7 10)"/>
    <path d="m572.63 123.731-200 60v270l200-60z" style="fill:#b9b083;fill-opacity:1;fill-rule:evenodd;stroke:#505050;stroke-width:8;stroke-linecap:butt;stroke-linejoin:miter;stroke-miterlimit:4;stroke-opacity:1;stroke-dasharray:none" transform="translate(-7 10)"/>
    <path d="m172.63 123.732 200 60 200-60-200-70z" style="fill:#eee5bd;fill-opacity:1;fill-rule:evenodd;stroke:#505050;stroke-width:8;stroke-linecap:butt;stroke-linejoin:bevel;stroke-miterlimit:4;stroke-opacity:.65789472;stroke-dasharray:none" transform="translate(-7 10)"/>
    <g style="font-size:180px;font-style:normal;font-weight:400;fill:#897751;fill-opacity:1;stroke:none;font-family:&quot;LMRoman10, FreeSerif, times&quot;">
        <path d="M472.439 536q-7.92 0-14.04-4.14-5.94-4.14-5.94-11.16 0-3.42 2.16-5.4 2.34-1.98 5.4-1.98t5.22 1.98q2.34 1.98 2.34 5.4 0 3.24-1.98 5.22t-4.86 2.34q4.68 3.78 11.7 3.78 17.46 0 17.46-37.26V379.22q0-16.56 8.82-28.8 9-12.42 23.58-12.42 7.92 0 13.86 4.14 6.12 4.14 6.12 11.16 0 3.6-2.34 5.58-2.16 1.8-5.22 1.8t-5.4-1.8q-2.16-1.98-2.16-5.58 0-3.24 1.98-5.22t4.86-2.34q-4.68-3.78-11.7-3.78-17.46 0-17.46 37.26v115.56q0 16.56-9 28.8-8.82 12.42-23.4 12.42" style="text-anchor:middle;font-family:&quot;LMRoman10, FreeSerif, times&quot;" transform="matrix(.91403 -.36823 -.0394 1.10993 -7 10)"/>
    </g>
    <g style="font-size:110px;font-style:normal;font-weight:400;fill:#897751;fill-opacity:1;stroke:none;font-family:&quot;LMRoman10, Times, FreeSerif&quot;">
        <path d="M612.97 400v-3.41c-7.7 0-8.58-.77-8.58-6.16v-66.77l-15.84 1.21v3.41c7.7 0 8.58.77 8.58 6.16v23.76c-3.19-3.96-7.92-6.82-13.86-6.82-12.98 0-24.53 10.78-24.53 24.97 0 13.97 10.78 24.86 23.32 24.86 7.04 0 11.99-3.74 14.74-7.26v7.26zm-16.17-12.98c0 1.98 0 2.2-1.21 4.07-3.3 5.28-8.25 7.7-12.98 7.7-4.95 0-8.91-2.86-11.55-7.04-2.86-4.51-3.19-10.78-3.19-15.29 0-4.07.22-10.67 3.41-15.62 2.31-3.41 6.49-7.04 12.43-7.04 3.85 0 8.47 1.65 11.88 6.6 1.21 1.87 1.21 2.09 1.21 4.07z" style="fill:#897751;font-family:&quot;LMRoman10, Times, FreeSerif&quot;" transform="matrix(.82465 -.25744 0 1.21263 -7 10)"/>
        <path d="M669.91 384.27c0-1.1-.88-1.1-1.65-1.1-1.32 0-1.43.11-1.98 1.87-2.97 9.46-8.47 13.75-13.09 13.75-2.2 0-5.17-1.32-5.17-7.04 0-2.64 1.21-7.37 2.09-11.11l3.74-15.07c1.54-5.72 4.51-11.77 9.68-11.77.33 0 3.08 0 4.84 1.54-4.4 1.1-4.4 5.28-4.4 5.28 0 1.43.99 3.52 3.85 3.52 1.98 0 5.39-1.54 5.39-5.83 0-5.61-6.38-6.93-9.57-6.93-6.05 0-9.68 5.39-10.78 7.48-2.42-6.6-7.81-7.48-10.56-7.48-11 0-16.94 14.41-16.94 16.94 0 1.1 1.1 1.1 1.65 1.1 1.43 0 1.43-.11 1.98-1.87 2.97-9.46 8.69-13.75 13.09-13.75 3.19 0 5.28 2.53 5.28 6.93 0 2.64-1.32 8.03-2.31 12.1l-2.53 10.01c-1.76 7.15-4.07 15.95-10.67 15.95-.33 0-2.97 0-4.84-1.54 3.3-.88 4.29-3.63 4.29-5.28 0-2.86-2.31-3.52-3.74-3.52-2.75 0-5.5 2.31-5.5 5.94 0 4.29 4.62 6.82 9.68 6.82 5.28 0 8.91-4.18 10.78-7.48 2.2 6.27 7.59 7.48 10.45 7.48 11.33 0 16.94-14.74 16.94-16.94" style="font-style:italic" transform="matrix(.82465 -.25744 0 1.21263 -7 10)"/>
    </g>
    <g style="font-size:244px;font-style:normal;font-weight:400;fill:#897751;fill-opacity:1;stroke:none;font-family:&quot;LMRoman10, Times, FreeSerif&quot;">
        <path d="M403.169 201.406h-6.1c-4.392 40.748-20.984 47.336-59.292 47.336h-67.344l61.244-69.296c2.196-2.44 2.196-3.904 2.196-3.904 0-1.22-.976-2.44-1.708-3.416l-50.02-72.224h56.364c41.236 0 53.436 8.784 58.56 47.336h6.1l-6.832-54.9h-135.42c-5.856 0-6.344 0-6.344 5.612l60.756 88.328-58.072 66.124c-2.44 2.684-2.44 3.172-2.44 3.904 0 2.684 2.44 2.684 6.1 2.684h135.42z" style="font-family:&quot;LMRoman10, Times, FreeSerif&quot;" transform="matrix(.8386 .25527 0 1.19247 -7 10)"/>
    </g>
    <g style="font-size:50px;font-style:normal;font-weight:400;fill:#9a8354;fill-opacity:1;stroke:none;display:inline;font-family:&quot;LMRoman10, Times, FreeSerif&quot;">
        <path d="M-40.3 292v-2.35h-7v-28.8c0-1.1 0-1.6-1.3-1.6-.55 0-.65 0-1.1.35-3.85 2.85-9 2.85-10.05 2.85h-1v2.35h1c.8 0 3.55-.05 6.5-1v25.85h-6.95V292c2.2-.15 7.5-.15 9.95-.15s7.75 0 9.95.15m49.602-15.95c0-4.85-.05-16.8-12.1-16.8s-12.1 11.9-12.1 16.8c0 4.95.05 16.5 12.1 16.5 12 0 12.1-11.5 12.1-16.5m-6.4-.6c0 2.8 0 7.35-.35 9.95-.7 4.65-3.85 5.35-5.35 5.35-1.8 0-4.6-1.1-5.25-4.75-.45-2.6-.45-7.8-.45-10.55 0-3.6 0-6.85.4-9.45.6-4.45 4.1-4.95 5.3-4.95 1.85 0 3.9.95 4.85 3.15.85 1.85.85 7.15.85 11.25m-41.452 74.6c0-4.85-.05-16.8-12.1-16.8s-12.1 11.9-12.1 16.8c0 4.95.05 16.5 12.1 16.5 12 0 12.1-11.5 12.1-16.5m-6.4-.6c0 2.8 0 7.35-.35 9.95-.7 4.65-3.85 5.35-5.35 5.35-1.8 0-4.6-1.1-5.25-4.75-.45-2.6-.45-7.8-.45-10.55 0-3.6 0-6.85.4-9.45.6-4.45 4.1-4.95 5.3-4.95 1.85 0 3.9.95 4.85 3.15.85 1.85.85 7.15.85 11.25M7.552 366v-2.35h-7v-28.8c0-1.1 0-1.6-1.3-1.6-.55 0-.65 0-1.1.35-3.85 2.85-9 2.85-10.05 2.85h-1v2.35h1c.8 0 3.55-.05 6.5-1v25.85h-6.95V366c2.2-.15 7.5-.15 9.95-.15s7.75 0 9.95.15" style="font-weight:700;font-family:&quot;LMRoman10, Times, FreeSerif&quot;" transform="matrix(1.42656 -.37366 1.32988 .35265 -7 10)"/>
    </g>
    <g style="display:inline">
        <g style="font-size:160px;font-style:normal;font-weight:700;fill:#9a8354;fill-opacity:1;stroke:none;font-family:font-family">
            <path d="M1136.88 240v-9.76h-16.64V89.76h16.64V80h-26.4v160zm261.52 0V80H1372v9.76h16.64v140.48H1372V240z" style="fill:#9a8354;font-family:&quot;LMRoman10, Times, FreeSerif&quot;" transform="matrix(.50546 -.14758 .96422 .285 -417.976 273.606)"/>
        </g>
    </g>
    <path d="M361 258.362c-16.75-14 62.75 3.25 90 12s43.25 17 60 31c11.335 9.474 24.424 31.777 26.491 45.082.988 6.357 5.319 60.747-3.491 57.918-1.07-.343-30.58 10.45-14.98 4.111 34.714-14.106-141.927-136.66-158.02-150.11z" style="opacity:.5;fill:#000;fill-opacity:1;fill-rule:evenodd;stroke:#000;stroke-width:1px;stroke-linecap:butt;stroke-linejoin:miter;stroke-opacity:1" transform="translate(-7 10)"/>
    <path d="M238.158 193.796c-4.671 41.78 23.21 78.944 53.621 101.29 23.936 17.764 50.202 35.462 79.734 38.667 22.63-2 51.61-4.883 64.277 19.818 18.5 14.193 34.73-17.247 22.163-32.731-20.506-31.161-53.926-48.247-83.707-67.327-45.583-26.678-81.427-66.818-127.846-91.7-4.184 5.413-6.452 18.176-8.242 31.983z" style="opacity:.5;fill:#000;fill-opacity:1;fill-rule:evenodd;stroke:#000;stroke-width:1.08229625px;stroke-linecap:butt;stroke-linejoin:miter;stroke-opacity:1" transform="translate(-7 10)"/>
    <path d="M532 109.362c-54.438-2.2-110.702-3.9-162.714 15.007-24.077 7.592-46.17 28.992-47.174 55.315.999 10.799 2.991 21.111 4.832 31.777 3.22 12.798 11.081 24.302 12.554 37.501-5.683 5.294-17.717-4.57-25.911-5.404-8.211-4.666-24.425-4.155-27.274-12.29L296 135.362l101-46z" style="opacity:.5;fill:#000;fill-opacity:1;fill-rule:evenodd;stroke:#000;stroke-width:1px;stroke-linecap:butt;stroke-linejoin:miter;stroke-opacity:1" transform="translate(-7 10)"/>
    <path d="M248.767 444.185c-5.13-4.399-17.694-21.133-22.254-26.632-9.858-11.89 5.441-3.344 18.808-.175 38.312 10.521 82.085 24.112 120.355 34.615 21.393-1.751 46.722-6.403 64.085-20.294 18.403-24.124 22.835-59.447 10.105-87.073-19.035-24.884-52.69-29.63-80.937-38.095-34.12-7.743-64.147-27.048-88.686-51.56-31.221-25.392-31.347-71.701-17.4-106.329C261 120.896 280.854 96.6 308.632 87.03c44.023-19.4 92.768-22.25 140.176-19.603 45.647 2.045 91.171 10.306 133.402 28.134 19.526 7.871 35.512 8.143 56.876 4.457 10.857 3.85 23.302 9.705 29.783 16.19 11.743 11.752 18.034 32.848 28.669 45.226 20.131 22.851-10.355 50.693-34.593 36.824-24.513-7.428-59.28-.938-71.119-30.095-5.652-15.945-18.446-20.323-17.832-40.598-15.554-14.82-42.922-17.184-63.178-20.58-59.993-9.003-126.86-11.641-180.375 21.958-22.552 13.85-36.068 46.785-20.636 70.298 19.63 19.337 49.71 19.974 74.76 28.008 48.574 11.079 101.244 28.81 128.598 73.798 14.287 23.12 14.071 51.742 15.905 78.057 1.098 41.76-11.009 80.013-55.886 107.912-46.933 20.14-87.039 16.763-130.536 6.697-37.849-9.047-63.904-20.804-93.878-49.527z" style="fill:#72ba45;fill-opacity:1;fill-rule:evenodd;stroke:#344829;stroke-width:8;stroke-linecap:butt;stroke-linejoin:round;stroke-miterlimit:4;stroke-opacity:1;stroke-dasharray:none" transform="translate(-7 10)"/>
    <path d="M646.296 162.822a6.364 5.657 0 1 1-12.728 0 6.364 5.657 0 1 1 12.728 0z" style="opacity:.5;fill:#000;fill-opacity:1;stroke:#505050;stroke-width:6;stroke-linejoin:round;stroke-miterlimit:4;stroke-opacity:1;stroke-dasharray:none" transform="translate(-10.515 22.243)"/>
    <path d="M674.58 131.002a6.364 6.364 0 1 1-12.728 0 6.364 6.364 0 1 1 12.728 0z" style="opacity:.5;fill:#000;fill-opacity:1;stroke:#505050;stroke-width:6;stroke-linejoin:round;stroke-miterlimit:4;stroke-opacity:1;stroke-dasharray:none" transform="translate(-14.757 16.586)"/>
    <path d="M699.685 195.613c4.407 5.245 6.648 11.314 16.97 11.314.845 4.22 0 9.739 0 14.142" style="fill:none;stroke:#9d2020;stroke-width:6;stroke-linecap:butt;stroke-linejoin:miter;stroke-miterlimit:4;stroke-opacity:1;stroke-dasharray:none" transform="translate(-7 10)"/>
    <path d="M716.492 206.935c.018.09 11.987 0 16.97 0" style="fill:none;stroke:#9d2020;stroke-width:6;stroke-linecap:butt;stroke-linejoin:miter;stroke-miterlimit:4;stroke-opacity:1;stroke-dasharray:none" transform="translate(-7 10)"/>
    <path d="M247.065 201.868c1.236 14.879 3.852 27.335 12.412 38.687 15.445 20.483 35.437 36.048 58.929 48.496 9.535 5.053 21.872 9.316 32.163 12.16 29.32 8.857 63.592 15.443 86.944 37.55 16.698 19.602-1.213-17.273-16.59-28.928-42.868-32.489-105.805-26.42-145.424-65.615-11.298-12.054-22.169-27.175-28.434-42.35zM523.949 350.51c-1.92 36.12-9.324 81.59-33.952 107.824-42.4 29.908-111.311 31.942-159.206 15.15-26.049-8.084-46.169-19.908-69.904-33.32-9.286-5.266-21.151-18.147-25.032-19.545-5.428-1.955 5.487 15.117 11.712 21.592 28.783 32.918 65.956 42.627 116.38 54.374 43.882 5.748 74.335 9.265 118.998-17.756 31.703-24.224 36.659-44.21 41.633-67.825 3.996-36.676 1.156-34.619-.63-60.494zM307.358 201.832c-9.583-27.38-5.844-50.952 11.364-65.682 21.448-18.36 36.785-24.06 67.88-33.462 33.559-2.85 48.228-2.527 123.09 1.609-57.348-10.27-133.433-19.896-186.618 8.781-30.878 17.82-44.484 59.197-15.716 88.754zM576 122.862c1.303 1.146 1.694 7.735 6.255 14.896s8.08 7.018 11.99 13.75 2.085 6.589 3.649 13.177c1.563 6.589 3.91 13.893 2.606 13.177-1.303-.716-3.258-8.594-7.82-16.041-4.56-7.448-6.515-6.589-10.425-13.75-3.91-7.162-3.649-8.594-5.212-14.896-1.564-6.302-2.346-11.459-1.043-10.313z" style="fill:#2e642c;fill-opacity:1;fill-rule:evenodd;stroke:#000;stroke-width:0;stroke-linecap:butt;stroke-linejoin:miter;stroke-miterlimit:4;stroke-opacity:1;stroke-dasharray:none" transform="translate(-7 10)"/>
    <path d="M522.643 350.787c-3.423 22.38-10.29 50.824-21.047 68.875-18.65 24.062-26.782 29.518-51.234 41.497-39.022 12.013-89.72 16.621-135.598-1.02-24.225-8.379-49.396-16.185-69.66-33.567-2.754-5.435-16.993-13.102-9.047-1.515 19.068 33.027 54.276 48.307 87.415 57.314 35.226 9.613 73.007 16.515 108.735 5.852 36.396-6.613 64.847-25.709 83.514-63.251 5.515-12.862 9.004-43.638 7.77-57.786.053-5.57-1.394-10.861-.848-16.399zM247.424 191.096c1.236 14.88 3.852 27.335 12.412 38.687 15.445 20.483 35.437 36.048 58.93 48.496 9.534 5.053 21.871 9.316 32.163 12.16 29.32 8.857 62.09 18.943 85.444 41.05 8.197 7.102-.713-11.773-16.091-23.427-42.868-32.49-108.805-28.421-148.424-67.616-11.298-12.054-18.169-34.175-24.434-49.35z" style="fill:#4f873b;fill-opacity:1;fill-rule:evenodd;stroke:#000;stroke-width:0;stroke-linecap:butt;stroke-linejoin:miter;stroke-miterlimit:4;stroke-opacity:1;stroke-dasharray:none" transform="translate(-7 10)"/>
    <path d="M489.767 394.907c-.297-28.042-5.47-77.538-36.005-100.975-35.927-36.025-101.644-26.7-143.427-52.779-17.191-15.58 29.212-4.309 67.802 5.383 39.27 9.143 86.228 17.742 109.843 52.021 19.125 32.544 22.726 74.716 1.787 96.35z" style="fill:#c7e06d;fill-opacity:1;fill-rule:evenodd;stroke:#c7e06d;stroke-width:13.42280579;stroke-linecap:butt;stroke-linejoin:miter;stroke-miterlimit:4;stroke-opacity:.52631579;stroke-dasharray:none" transform="translate(-7 10)"/>
    <path d="M263.158 189.54c-4.75-27.326 2.952-57.616 24.605-75.983 32.02-28.124 75.849-37.042 117.36-37.853 57.225-2.748 114.83 5.845 168.764 25.166 13.389 4.67 26.76 9.484 39.655 15.401-42.821-8.274-84.183-23.646-127.729-28.448-35.398-4.295-71.325-5.582-106.863-2.826-30.695 4.1-64.043 10.443-85.85 34.485-12.762 10.444-21.751 25.323-22.778 42.019-3.986 18.828 2.038 40.066 15.704 52.92 15.245 10.624 14.667 11.294 26.254 15.847 7.06 2.773 7.122 3.867 8.613 7.995.754 2.084-.405 4.243 1.347 6.001-7.055-1.23-12.48-1.657-18.449-4.487-6.479-3.07-10.983-6.205-20.493-14.127-10.188-10.422-18.287-20.657-20.14-36.11z" style="fill:#c7e06d;fill-opacity:1;fill-rule:evenodd;stroke:#c7e06d;stroke-width:8;stroke-linecap:butt;stroke-linejoin:miter;stroke-miterlimit:4;stroke-opacity:.51315792;stroke-dasharray:none" transform="translate(-7 10)"/>
    <path d="M660.5 124.862c.649 3.244-4.853-4.515-7.5-6.5-2.738-2.053-5.709-2.354-8-3.5-2.737-1.368-3.231-2.231-5.5-4.5-4.012-4.012 3.476-1.5 7-1.5 1.877 0 6.783 3.892 9 5 2.614 1.307 5.535 3.026 7.5 4.5 2.055 1.541 2.147 3.794 3 5.5.833 1.667-3.732.41-5.5 1zm25 67.5c-2.386 3.182 4.855-4.21 7-8.5 1.032-2.064.034-8.864-.5-11-.832-3.33-2.55-5.4-4.5-8-1.616-2.154 5.092 1.796 7.5 3 1.583.792 2 4.024 2 6.5v7.5c0 2.693-1.068 5.637-2 7.5-.71 1.42-2.95 1-4.5 1m-76.731-23.297c3.955-7.234 9.596-9.9 19.799-9.9 11.272 0 16.396.265 11.313-9.9-3.822-7.643-8.858-10.567-4.242-19.798 6.159-12.318-9.17-3.023-11.314-1.415-7.89 5.918-12.206 5.657-22.627 5.657-6.033 0-4.243 3.166-4.243 8.485" style="opacity:.5;fill:#c7e06d;fill-opacity:1;stroke:#650606;stroke-width:0;stroke-linejoin:bevel;stroke-miterlimit:4;stroke-opacity:1;stroke-dasharray:none" transform="translate(-7 10)"/>
    <g style="opacity:.647343;display:inline">
        <path d="M577 108.375a4.243 4.95 0 1 1-8.486 0 4.243 4.95 0 1 1 8.485 0z" style="opacity:.5;fill:#3b4f87;fill-opacity:1;stroke:#066506;stroke-width:8;stroke-linejoin:bevel;stroke-miterlimit:4;stroke-opacity:1;stroke-dasharray:none;display:inline" transform="translate(-4.021 8.412)"/>
        <path d="M544.472 97.06a6.364 4.95 0 1 1-12.728 0 6.364 4.95 0 1 1 12.728 0z" style="opacity:.5;fill:#3b4f87;fill-opacity:1;stroke:#066506;stroke-width:8;stroke-linejoin:bevel;stroke-miterlimit:4;stroke-opacity:1;stroke-dasharray:none;display:inline" transform="translate(-12.021 7.412)"/>
        <path d="M493.56 88.576a7.071 7.778 0 1 1-14.142 0 7.071 7.778 0 1 1 14.143 0z" style="opacity:.5;fill:#3b4f87;fill-opacity:1;stroke:#066506;stroke-width:8;stroke-linejoin:bevel;stroke-miterlimit:4;stroke-opacity:1;stroke-dasharray:none;display:inline" transform="matrix(.8537 0 0 .67415 68.154 36.774)"/>
        <path d="M452.548 86.454a7.778 5.657 0 1 1-15.556 0 7.778 5.657 0 1 1 15.556 0z" style="opacity:.5;fill:#3b4f87;fill-opacity:1;stroke:#066506;stroke-width:8;stroke-linejoin:bevel;stroke-miterlimit:4;stroke-opacity:1;stroke-dasharray:none;display:inline" transform="translate(-6.021 6.412)"/>
        <path d="M403.05 89.283a8.485 7.071 0 1 1-16.97 0 8.485 7.071 0 1 1 16.97 0z" style="opacity:.5;fill:#3b4f87;fill-opacity:1;stroke:#066506;stroke-width:8;stroke-linejoin:bevel;stroke-miterlimit:4;stroke-opacity:1;stroke-dasharray:none;display:inline" transform="translate(-7.021 5.412)"/>
        <path d="M357.796 101.304a9.9 7.778 0 1 1-19.799 0 9.9 7.778 0 1 1 19.799 0z" style="opacity:.5;fill:#3b4f87;fill-opacity:1;stroke:#066506;stroke-width:8;stroke-linejoin:bevel;stroke-miterlimit:4;stroke-opacity:1;stroke-dasharray:none;display:inline" transform="translate(-7.021 4.412)"/>
        <path d="M315.37 122.517a12.02 10.607 0 1 1-24.042 0 12.02 10.607 0 1 1 24.042 0z" style="opacity:.5;fill:#3b4f87;fill-opacity:1;stroke:#066506;stroke-width:8;stroke-linejoin:bevel;stroke-miterlimit:4;stroke-opacity:1;stroke-dasharray:none;display:inline" transform="translate(-4.021 8.412)"/>
        <path d="M288.5 167.772a12.728 12.02 0 1 1-25.456 0 12.728 12.02 0 1 1 25.456 0z" style="opacity:.5;fill:#3b4f87;fill-opacity:1;stroke:#066506;stroke-width:8;stroke-linejoin:bevel;stroke-miterlimit:4;stroke-opacity:1;stroke-dasharray:none;display:inline" transform="translate(-4.021 9.412)"/>
        <path d="M318.198 229.29a14.142 14.142 0 1 1-28.284 0 14.142 14.142 0 1 1 28.284 0z" style="opacity:.5;fill:#3b4f87;fill-opacity:1;stroke:#066506;stroke-width:6.7851944;stroke-linejoin:bevel;stroke-miterlimit:4;stroke-opacity:1;stroke-dasharray:none;display:inline" transform="matrix(1.19685 0 0 1.1615 -68.374 -27.617)"/>
        <path d="M400.222 268.888a20.506 18.385 0 1 1-41.012 0 20.506 18.385 0 1 1 41.012 0zm73.54 37.477a16.97 17.678 0 1 1-33.942 0 16.97 17.678 0 1 1 33.942 0zm31.112 69.296a15.556 19.092 0 1 1-31.112 0 15.556 19.092 0 1 1 31.112 0zm-15.556 58.689a14.85 15.556 0 1 1-29.699 0 14.85 15.556 0 1 1 29.699 0z" style="opacity:.5;fill:#3b4f87;fill-opacity:1;stroke:#066506;stroke-width:8;stroke-linejoin:bevel;stroke-miterlimit:4;stroke-opacity:1;stroke-dasharray:none;display:inline" transform="translate(-4.021 8.412)"/>
        <path d="M446.891 469.706a11.314 9.9 0 1 1-22.627 0 11.314 9.9 0 1 1 22.627 0z" style="opacity:.5;fill:#3b4f87;fill-opacity:1;stroke:#066506;stroke-width:5.81596088;stroke-linejoin:bevel;stroke-miterlimit:4;stroke-opacity:1;stroke-dasharray:none;display:inline" transform="matrix(1.57434 0 0 1.20182 -261.19 -78.884)"/>
        <path d="M376.18 470.413a11.314 6.364 0 1 1-22.627 0 11.314 6.364 0 1 1 22.628 0z" style="opacity:.5;fill:#3b4f87;fill-opacity:1;stroke:#066506;stroke-width:5.34536552;stroke-linejoin:bevel;stroke-miterlimit:4;stroke-opacity:1;stroke-dasharray:none;display:inline" transform="matrix(1.44314 0 0 1.5521 -182.515 -247.01)"/>
        <path d="M301.227 447.786a12.02 3.536 0 1 1-24.041 0 12.02 3.536 0 1 1 24.041 0z" style="opacity:.5;fill:#3b4f87;fill-opacity:1;stroke:#066506;stroke-width:5.09605265;stroke-linejoin:bevel;stroke-miterlimit:4;stroke-opacity:1;stroke-dasharray:none;display:inline" transform="matrix(1.3927 0 0 1.76951 -118.403 -332.374)"/>
    </g>
    <g style="opacity:.50724637;display:inline">
        <path d="m228.402 414.052 144.276 37.326 12.73-3.999c-3.836 4.513-7.7 9.045-12.418 12.756-4.468 5.061-1.453 11.98-1.96 17.894.716 5.23-2.01 12.175-8.85 10.92-9.778-.493-18.58-5.196-28.002-7.314-21.217-5.372-42.872-11.708-61.22-22.591-16.587-9.838-29.94-24.44-44.91-36.66z" style="fill:#000;fill-opacity:1;fill-rule:evenodd;stroke:#000;stroke-width:.97098225px;stroke-linecap:butt;stroke-linejoin:miter;stroke-opacity:1" transform="translate(-7 10)"/>
    </g>
</svg>
