<svg xmlns="http://www.w3.org/2000/svg" xml:space="preserve" id="svg58" width="1920" height="1080" version="1.1">
    <defs id="defs58">
        <style id="style58">
            .a{fill:#fff}
        </style>
    </defs>
    <path id="path1" d="M0 0h1920v1080H0z" style="opacity:1;fill:#2b2d42;fill-opacity:1;stroke-width:4.9134;stroke-linecap:square;paint-order:stroke fill markers"/>
    <g id="g1" transform="rotate(180 959.889 538.982)">
        <path id="path2" d="M.21 1071.472C212.852 999.275 431.915 912.08 653.316 848.45c180.554-51.843 359.634-87.022 508.132-90.107 146.423-2.964 265.93 24.634 364.122 62.379 97.582 37.516 171.969 82.045 268.24 105.611 36.163 8.834 78.877 12.978 125.728 12.299" style="opacity:1;fill:none;stroke:#ececec;stroke-width:1.33333;stroke-linecap:butt;stroke-linejoin:miter;stroke-miterlimit:4;stroke-dasharray:none;stroke-opacity:.593556"/>
        <path id="path3" d="M.21 1041.762c220.684-73.212 446.199-160.88 673.854-221.35 178.328-47.331 355.22-75.764 496.847-71.405 142.717 4.44 253.767 39.913 346.825 83.302 91.552 42.777 161.608 90.25 257.606 113.397 40.024 9.625 89.466 12.47 144.196 8.866" style="opacity:1;fill:none;stroke:#ececec;stroke-width:1.33333;stroke-linecap:butt;stroke-linejoin:miter;stroke-miterlimit:4;stroke-dasharray:none;stroke-opacity:.593556"/>
        <path id="path4" d="M.21 1013.583c229.603-75.367 461.794-164.112 695.692-221.41 176.383-43.159 350.92-64.78 485.722-53.18 138.719 11.984 241.467 55.105 329.2 104.26 85.56 47.889 151.127 98.367 246.739 121.117 43.386 10.296 99.491 11.351 161.975 4.28" style="opacity:1;fill:none;stroke:#ececec;stroke-width:1.33333;stroke-linecap:butt;stroke-linejoin:miter;stroke-miterlimit:4;stroke-dasharray:none;stroke-opacity:.593556"/>
        <path id="path5" d="M.21 987.152c239.235-78.629 478.373-169.038 718.309-223.136 174.706-39.33 346.697-54.144 474.822-35.531 134.449 19.589 228.94 70.191 311.389 125.114 79.409 52.932 140.558 106.385 235.764 128.723 46.332 10.835 109.02 9.662 179.044-1.275" style="opacity:1;fill:none;stroke:#ececec;stroke-width:1.33333;stroke-linecap:butt;stroke-linejoin:miter;stroke-miterlimit:4;stroke-dasharray:none;stroke-opacity:.593556"/>
        <path id="path6" d="M.21 962.66c249.42-82.915 495.772-175.588 741.408-226.474 173.315-35.845 342.468-43.876 464.208-18.53 129.93 27.187 216.424 85.047 293.552 145.731 73.395 57.792 130 114.24 224.756 136.16 48.911 11.28 118.08 7.474 195.404-7.633" style="opacity:1;fill:none;stroke:#ececec;stroke-width:1.33333;stroke-linecap:butt;stroke-linejoin:miter;stroke-miterlimit:4;stroke-dasharray:none;stroke-opacity:.593556"/>
        <path id="path7" d="M.21 940.174c259.973-88.095 513.836-183.598 764.721-231.302 172.212-32.666 338.374-34.073 453.934-2.204 125.28 34.656 204.066 99.57 275.814 165.974 67.509 62.482 119.587 121.864 213.823 143.389 51.169 11.64 126.704 4.899 211.036-14.556" style="opacity:1;fill:none;stroke:#ececec;stroke-width:1.33333;stroke-linecap:butt;stroke-linejoin:miter;stroke-miterlimit:4;stroke-dasharray:none;stroke-opacity:.593556"/>
        <path id="path8" d="M.21 919.72c270.708-94.013 532.332-192.887 788.034-237.46 171.361-29.79 334.325-24.734 444.024 13.407 120.47 41.994 191.933 113.687 258.29 185.737 61.733 67.006 109.332 129.246 203.033 150.375 53.16 11.919 134.897 1.963 225.947-21.947" style="opacity:1;fill:none;stroke:#ececec;stroke-width:1.33333;stroke-linecap:butt;stroke-linejoin:miter;stroke-miterlimit:4;stroke-dasharray:none;stroke-opacity:.593556"/>
        <path id="path9" d="M.21 901.238C281.673 800.74 551.275 698.008 811.353 656.49c170.73-27.178 330.336-15.857 434.507 28.272 115.65 49.115 179.95 127.407 241.078 204.936 56.185 71.31 99.321 136.336 192.489 157.072 54.912 12.135 142.667-1.237 240.111-29.619" style="opacity:1;fill:none;stroke:#ececec;stroke-width:1.33333;stroke-linecap:butt;stroke-linejoin:miter;stroke-miterlimit:4;stroke-dasharray:none;stroke-opacity:.593556"/>
        <path id="path10" d="M.21 884.642c292.112-107.37 569.82-214.369 833.862-252.96 170.298-24.796 326.484-7.492 425.393 42.391 110.828 55.984 168.421 140.585 224.306 223.471 26.285 39.082 50.475 75.6 80.816 105.958 26.874 26.813 58.287 48.06 101.411 57.501 56.441 12.31 150.021-4.64 253.54-37.453" style="opacity:1;fill:none;stroke:#ececec;stroke-width:1.33333;stroke-linecap:butt;stroke-linejoin:miter;stroke-miterlimit:4;stroke-dasharray:none;stroke-opacity:.593556"/>
        <path id="path11" d="M.21 869.773c85.954-32.42 171.933-64.988 258.63-96.285 209.337-75.55 414.846-141.183 597.406-165.56 170.03-22.63 322.716.4 416.702 55.754 106.091 62.577 157.25 153.24 208.046 241.264 23.787 41.198 45.66 79.41 74.3 110.966 25.16 27.62 55.338 49.354 98.024 58.554 57.803 12.434 156.981-8.179 266.22-45.328" style="opacity:1;fill:none;stroke:#ececec;stroke-width:1.33333;stroke-linecap:butt;stroke-linejoin:miter;stroke-miterlimit:4;stroke-dasharray:none;stroke-opacity:.593556"/>
        <path id="path12" d="M600.878 551.348c-5.432 14.631-14.345 31.269-25.478 48.652M477.01 0c-19.864 28.873-39.718 57.704-58.665 86.774-42.932 65.895-79.764 130.773-92.071 187.545-11.466 53.109 4.329 99.749 37.951 127.684 38.245 31.705 91.768 45.829 143.392 60.144 23.987 6.683 46.112 12.794 64.246 21.272 12.473 5.83 22.781 12.732 29.015 21.904m0 55.528c-6.004 12.228-13.922 25.478-23.124 39.149" style="opacity:1;fill:none;stroke:#ececec;stroke-width:.555501;stroke-linecap:butt;stroke-linejoin:miter;stroke-miterlimit:4;stroke-dasharray:none;stroke-opacity:.593556" transform="matrix(0 1.80098 3.19888 0 .21 -2.281)"/>
        <path id="path13" d="M470.609 0c-21.729 30.79-43.349 61.486-63.841 92.438-43.906 66.333-81.175 131.852-92.365 188.34-10.471 53.101 8.16 98.671 44.515 125.24 41.559 30.301 98.123 42.627 152.34 55.463 25.055 5.932 47.992 11.425 66.724 19.41 8.981 3.832 16.846 8.233 22.896 13.634m0 72.492c-5.954 10.5-13.108 21.606-21.09 32.983" style="opacity:1;fill:none;stroke:#ececec;stroke-width:.555501;stroke-linecap:butt;stroke-linejoin:miter;stroke-miterlimit:4;stroke-dasharray:none;stroke-opacity:.593556" transform="matrix(0 1.80098 3.19888 0 .21 -2.281)"/>
        <path id="path14" d="M464.938 0c-23.578 32.621-46.932 65.086-68.93 97.822-44.852 66.755-82.589 132.894-92.762 189.119-9.56 53.115 11.712 97.655 50.649 122.94 44.671 28.967 104.104 39.598 160.768 51.017 26.048 5.234 49.756 10.128 69.04 17.651 6.36 2.488 12.168 5.26 17.175 8.472m0 84.51c-5.711 9.169-12.228 18.728-19.311 28.469" style="opacity:1;fill:none;stroke:#ececec;stroke-width:.555501;stroke-linecap:butt;stroke-linejoin:miter;stroke-miterlimit:4;stroke-dasharray:none;stroke-opacity:.593556" transform="matrix(0 1.80098 3.19888 0 .21 -2.281)"/>
        <path id="path15" d="M459.933 0c-25.384 34.354-50.428 68.491-73.886 102.906-45.752 67.159-83.971 133.898-93.222 189.873-8.735 53.147 15.018 96.675 56.358 120.781 47.583 27.701 109.694 36.757 168.659 46.829 26.957 4.603 51.387 8.913 71.186 15.996 4.216 1.51 8.189 3.15 11.85 4.959m0 93.62c-5.412 8.126-11.394 16.516-17.777 25.036" style="opacity:1;fill:none;stroke:#ececec;stroke-width:.555501;stroke-linecap:butt;stroke-linejoin:miter;stroke-miterlimit:4;stroke-dasharray:none;stroke-opacity:.593556" transform="matrix(0 1.80098 3.19888 0 .21 -2.281)"/>
        <path id="path16" d="M455.521 0c-27.128 35.98-53.795 71.684-78.642 107.675-46.604 67.53-85.297 134.84-93.708 190.579-7.983 53.196 18.046 95.781 61.629 118.777 50.287 26.502 114.89 34.101 175.983 42.912 27.802 4.009 52.902 7.764 73.163 14.458 2.392.788 4.707 1.619 6.932 2.499m0 101.515c-5.087 6.985-10.569 14.173-16.367 21.585" style="opacity:1;fill:none;stroke:#ececec;stroke-width:.555501;stroke-linecap:butt;stroke-linejoin:miter;stroke-miterlimit:4;stroke-dasharray:none;stroke-opacity:.593556" transform="matrix(0 1.80098 3.19888 0 .21 -2.281)"/>
        <path id="path17" d="M451.672 0c-28.794 37.5-57.007 74.652-83.167 112.104-47.396 67.876-86.544 135.716-94.21 191.241-3.634 26.515.423 50.932 11.276 69.727 11.83 20.472 31.33 35.696 55.189 47.2 52.783 25.383 119.668 31.666 182.73 39.28 28.576 3.455 54.26 6.751 74.968 13.04q1.223.373 2.42.762m0 107.038c-4.799 6.362-9.904 12.893-15.258 19.608" style="opacity:1;fill:none;stroke:#ececec;stroke-width:.555501;stroke-linecap:butt;stroke-linejoin:miter;stroke-miterlimit:4;stroke-dasharray:none;stroke-opacity:.593556" transform="matrix(0 1.80098 3.19888 0 .21 -2.281)"/>
        <path id="path18" d="M448.318 0c-30.357 38.899-60.018 77.387-87.405 116.18-48.119 68.183-87.711 136.525-94.689 191.843-3.33 26.492 1.353 50.723 12.894 69.201 12.656 20.21 33.099 35.006 57.963 46.034 55.061 24.349 124.033 29.406 188.875 35.955 28.504 2.879 54.126 5.638 74.922 11.28m0 111.48c-4.543 5.861-9.328 11.865-14.315 18.027" style="opacity:1;fill:none;stroke:#ececec;stroke-width:.555501;stroke-linecap:butt;stroke-linejoin:miter;stroke-miterlimit:4;stroke-dasharray:none;stroke-opacity:.593556" transform="matrix(0 1.80098 3.19888 0 .21 -2.281)"/>
        <path id="path19" d="M.21 799.924c128.509-57.282 255.504-113.109 383.491-164.46 219.021-87.834 439.063-159.855 615.43-171.354 84.652-5.473 161.697 3.928 219.843 25.84 63.926 24.117 110.016 62.46 143.882 108.89 74.982 102.817 87.534 230.454 105.384 350.115 7.3 49.471 14.507 94.082 29.622 130.933" style="opacity:1;fill:none;stroke:#ececec;stroke-width:1.33333;stroke-linecap:butt;stroke-linejoin:miter;stroke-miterlimit:4;stroke-dasharray:none;stroke-opacity:.593556"/>
        <path id="path20" d="M600.878 583.256A1240 1240 0 0 1 587.364 600" style="opacity:1;fill:none;stroke:#ececec;stroke-width:.555501;stroke-linecap:butt;stroke-linejoin:miter;stroke-miterlimit:4;stroke-dasharray:none;stroke-opacity:.593556" transform="matrix(0 1.80098 3.19888 0 .21 -2.281)"/>
        <path id="path21" d="M.21 795.463c132.152-59.648 262.612-117.656 394.07-170.834 219.811-88.876 441.151-161.533 616.978-172.094 84.604-5.043 161.156 5.255 218.502 28.144 63.303 25.28 108.145 65.026 140.866 112.889 72.292 106.09 81.824 236.71 96.82 358.94 5.896 47.824 11.696 91.114 24.44 127.38" style="opacity:1;fill:none;stroke:#ececec;stroke-width:1.33333;stroke-linecap:butt;stroke-linejoin:miter;stroke-miterlimit:4;stroke-dasharray:none;stroke-opacity:.593556"/>
        <path id="path22" d="M600.878 584.289A1440 1440 0 0 1 588.032 600" style="opacity:1;fill:none;stroke:#ececec;stroke-width:.555501;stroke-linecap:butt;stroke-linejoin:miter;stroke-miterlimit:4;stroke-dasharray:none;stroke-opacity:.593556" transform="matrix(0 1.80098 3.19888 0 .21 -2.281)"/>
        <path id="path23" d="M.21 791.708c135.354-61.752 268.853-121.694 403.363-176.485 220.489-89.783 442.949-163.01 618.315-172.756 84.546-4.657 160.663 6.415 217.322 30.149 62.698 26.316 106.628 67.22 138.24 116.365 69.994 108.921 76.785 242.169 89.315 366.63 4.626 46.44 9.338 88.589 20.284 124.277" style="opacity:1;fill:none;stroke:#ececec;stroke-width:1.33333;stroke-linecap:butt;stroke-linejoin:miter;stroke-miterlimit:4;stroke-dasharray:none;stroke-opacity:.593556"/>
        <path id="path24" d="M600.878 585.116c-3.96 4.859-8.066 9.818-12.298 14.884" style="opacity:1;fill:none;stroke:#ececec;stroke-width:.555501;stroke-linecap:butt;stroke-linejoin:miter;stroke-miterlimit:4;stroke-dasharray:none;stroke-opacity:.593556" transform="matrix(0 1.80098 3.19888 0 .21 -2.281)"/>
        <path id="path25" d="M.21 788.612c138.108-63.569 274.186-125.182 411.315-181.37C632.59 516.696 856.03 442.97 1030.97 433.925c84.495-4.325 160.235 7.4 216.318 31.844 62.177 27.2 105.272 69.104 135.978 119.323 67.995 111.345 72.48 246.808 82.94 373.16 3.778 45.256 7.57 86.453 17.044 121.637" style="opacity:1;fill:none;stroke:#ececec;stroke-width:1.33333;stroke-linecap:butt;stroke-linejoin:miter;stroke-miterlimit:4;stroke-dasharray:none;stroke-opacity:.593556"/>
        <path id="path26" d="M600.878 585.765A1778 1778 0 0 1 589.021 600" style="opacity:1;fill:none;stroke:#ececec;stroke-width:.555501;stroke-linecap:butt;stroke-linejoin:miter;stroke-miterlimit:4;stroke-dasharray:none;stroke-opacity:.593556" transform="matrix(0 1.80098 3.19888 0 .21 -2.281)"/>
        <path id="path27" d="M.21 786.123c140.373-65.082 278.59-128.082 417.867-185.416 221.544-91.18 445.754-165.285 620.368-173.793 84.466-4.063 159.931 8.196 215.499 33.25 61.793 27.897 104.133 70.649 134.126 121.744 66.38 113.318 68.913 250.62 77.685 378.512 3 44.315 6.157 84.722 14.542 119.468" style="opacity:1;fill:none;stroke:#ececec;stroke-width:1.33333;stroke-linecap:butt;stroke-linejoin:miter;stroke-miterlimit:4;stroke-dasharray:none;stroke-opacity:.593556"/>
        <path id="path28" d="M600.878 586.246A1990 1990 0 0 1 589.354 600" style="opacity:1;fill:none;stroke:#ececec;stroke-width:.555501;stroke-linecap:butt;stroke-linejoin:miter;stroke-miterlimit:4;stroke-dasharray:none;stroke-opacity:.593556" transform="matrix(0 1.80098 3.19888 0 .21 -2.281)"/>
        <path id="path29" d="M.21 784.23c142.149-66.276 282.055-130.37 423-188.62 221.917-91.66 446.763-166.115 621.089-174.155 84.431-3.845 159.685 8.81 214.85 34.332 61.476 28.46 103.323 71.845 132.689 123.64 65.065 114.875 66.233 253.576 73.565 382.683 2.536 43.574 5.16 83.381 12.709 117.778" style="opacity:1;fill:none;stroke:#ececec;stroke-width:1.33333;stroke-linecap:butt;stroke-linejoin:miter;stroke-miterlimit:4;stroke-dasharray:none;stroke-opacity:.593556"/>
        <path id="path30" d="M600.878 586.586A2030 2030 0 0 1 589.59 600" style="opacity:1;fill:none;stroke:#ececec;stroke-width:.555501;stroke-linecap:butt;stroke-linejoin:miter;stroke-miterlimit:4;stroke-dasharray:none;stroke-opacity:.593556" transform="matrix(0 1.80098 3.19888 0 .21 -2.281)"/>
        <path id="path31" d="M.21 782.883C143.638 715.75 284.744 650.866 426.899 591.97c222.175-92.018 447.485-166.714 621.603-174.418 84.435-3.72 159.432 9.286 214.383 35.112 61.226 28.868 102.735 72.698 131.65 124.993 64.223 115.954 64.179 255.709 70.628 385.67 2.082 43.064 4.408 82.43 11.426 116.562" style="opacity:1;fill:none;stroke:#ececec;stroke-width:1.33333;stroke-linecap:butt;stroke-linejoin:miter;stroke-miterlimit:4;stroke-dasharray:none;stroke-opacity:.593556"/>
        <path id="path32" d="M600.878 586.789A2109 2109 0 0 1 589.731 600" style="opacity:1;fill:none;stroke:#ececec;stroke-width:.555501;stroke-linecap:butt;stroke-linejoin:miter;stroke-miterlimit:4;stroke-dasharray:none;stroke-opacity:.593556" transform="matrix(0 1.80098 3.19888 0 .21 -2.281)"/>
        <path id="path33" d="M.21 782.084c144.2-67.654 286.025-133.015 428.912-192.302 222.338-92.223 447.891-167.032 621.904-174.58 84.402-3.609 159.359 9.537 214.11 35.577 61.1 29.104 102.3 73.231 131.01 125.815 63.604 116.644 63.025 256.976 68.876 387.46 1.92 42.745 4.04 81.85 10.713 115.834" style="opacity:1;fill:none;stroke:#ececec;stroke-width:1.33333;stroke-linecap:butt;stroke-linejoin:miter;stroke-miterlimit:4;stroke-dasharray:none;stroke-opacity:.593556"/>
        <path id="path34" d="M1618.37-2.281c-7.671 46.714-17.399 92.756-30.146 137.705-49.893 175.44-145.233 331.151-297.95 430.902C1139.478 664.595 931.66 711 718.352 732.155c-211.996 21.014-418.58 19.098-589.765 54.977C82.24 796.868 39.064 811.566.21 830.688" style="opacity:1;fill:none;stroke:#ececec;stroke-width:1.16267;stroke-linecap:butt;stroke-linejoin:miter;stroke-miterlimit:4;stroke-dasharray:none;stroke-opacity:.593556"/>
        <path id="path35" d="M1692.424-2.281c-11.503 62.438-26.583 123.684-47.593 182.736-60.212 168.913-172.224 315.611-338.486 402.523-167.67 87.526-388.54 119.576-612.199 131.043-220.294 11.188-430.473 3.152-600.18 39.319-33.364 7.132-64.739 17.324-93.756 30.255" style="opacity:1;fill:none;stroke:#ececec;stroke-width:1.16267;stroke-linecap:butt;stroke-linejoin:miter;stroke-miterlimit:4;stroke-dasharray:none;stroke-opacity:.593556"/>
        <path id="path36" d="M1768.33-2.281c-15.393 78.83-36.285 155.715-67.509 228.688-69.876 162.948-198.558 300.46-377.842 374.793-184.633 76.438-418.068 94.494-652.217 96.02-228.217 1.541-442.008-12.793-610.176 23.576-21.09 4.575-41.243 10.577-60.376 17.895" style="opacity:1;fill:none;stroke:#ececec;stroke-width:1.16267;stroke-linecap:butt;stroke-linejoin:miter;stroke-miterlimit:4;stroke-dasharray:none;stroke-opacity:.593556"/>
        <path id="path37" d="M1844.422-2.281c-18.893 95.846-45.558 188.667-88.692 275.058-78.862 157.557-223.992 285.747-415.82 347.856-201.452 65.1-447.046 69.383-691.732 60.981-235.77-8.119-453.156-28.671-619.712 7.9A252.712 142.277 0 0 0 .21 696.905" style="opacity:1;fill:none;stroke:#ececec;stroke-width:1.16267;stroke-linecap:butt;stroke-linejoin:miter;stroke-miterlimit:4;stroke-dasharray:none;stroke-opacity:.593556"/>
        <path id="path38" d="M1918.322 1.382c-21.538 112.138-53.344 219.785-109.12 317.713-87.198 152.728-248.393 271.44-452.29 321.82-217.994 53.623-475.375 44.546-730.553 26.212C384.677 649.72 164.82 623.044.21 658.942" style="opacity:1;fill:none;stroke:#ececec;stroke-width:1.16267;stroke-linecap:butt;stroke-linejoin:miter;stroke-miterlimit:4;stroke-dasharray:none;stroke-opacity:.593556"/>
        <path id="path39" d="M1918.322 255.79c-16.112 37.684-35.002 74.161-57.34 109.176-94.977 148.435-271.63 257.743-487.227 296.778-234.027 42.199-502.941 20.176-768.42-8.086C371.563 628.766 160.155 598.175.21 624.563" style="opacity:1;fill:none;stroke:#ececec;stroke-width:1.16267;stroke-linecap:butt;stroke-linejoin:miter;stroke-miterlimit:4;stroke-dasharray:none;stroke-opacity:.593556"/>
        <path id="path40" d="M1918.322 399.096a1442.695 812.242 0 0 1-7.552 10.952c-102.166 144.644-293.593 244.605-520.515 272.773-249.53 30.815-529.62-3.588-805.171-41.706-225.79-31.21-429.207-65.377-584.874-47.794" style="opacity:1;fill:none;stroke:#ececec;stroke-width:1.16267;stroke-linecap:butt;stroke-linejoin:miter;stroke-miterlimit:4;stroke-dasharray:none;stroke-opacity:.593556"/>
        <path id="path41" d="M1918.322 499.555c-115.162 115.183-300.841 188.51-512.057 204.357-264.381 19.674-555.326-26.8-840.669-74.481C347.75 593.004 151.898 555.625.21 565.184" style="opacity:1;fill:none;stroke:#ececec;stroke-width:1.16267;stroke-linecap:butt;stroke-linejoin:miter;stroke-miterlimit:4;stroke-dasharray:none;stroke-opacity:.593556"/>
        <path id="path42" d="M1918.322 576.154c-122.718 89.957-300.41 142.335-496.667 148.619-278.536 8.808-580.005-49.122-874.77-106.231-138.91-26.97-268.315-52.414-387.003-66.92C102.964 544.69 49.217 540.471.21 540.827" style="opacity:1;fill:none;stroke:#ececec;stroke-width:1.16267;stroke-linecap:butt;stroke-linejoin:miter;stroke-miterlimit:4;stroke-dasharray:none;stroke-opacity:.593556"/>
        <path id="path43" d="M1918.322 638.387c-126.512 70.784-297.236 107.83-481.988 106.827-291.997-1.688-603.587-70.616-907.333-136.81-142.165-30.968-273.827-59.821-394.07-76.786C87.427 524.945 42.195 520.284.21 518.766" style="opacity:1;fill:none;stroke:#ececec;stroke-width:1.16267;stroke-linecap:butt;stroke-linejoin:miter;stroke-miterlimit:4;stroke-dasharray:none;stroke-opacity:.593556"/>
        <path id="path44" d="M1918.322 690.624c-128.153 55.744-292.652 81.138-468.117 74.426-304.716-11.814-625.992-91.07-938.27-166.08-145.204-34.789-278.955-66.987-400.65-86.182-38.768-6.117-75.977-10.814-111.075-13.46" style="opacity:1;fill:none;stroke:#ececec;stroke-width:1.16267;stroke-linecap:butt;stroke-linejoin:miter;stroke-miterlimit:4;stroke-dasharray:none;stroke-opacity:.593556"/>
        <path id="path45" d="M1918.322 735.384c-128.473 43.719-287.387 60.025-455.095 48.755C1146.538 762.7 816.06 673.54 495.733 590.204c-148.016-38.509-283.76-73.637-406.767-95.07-30.68-5.339-60.363-9.747-88.756-12.897" style="opacity:1;fill:none;stroke:#ececec;stroke-width:1.16267;stroke-linecap:butt;stroke-linejoin:miter;stroke-miterlimit:4;stroke-dasharray:none;stroke-opacity:.593556"/>
        <path id="path46" d="M1918.322 774.186c-127.977 33.992-281.85 43.103-442.984 28.153-327.875-30.525-667.05-129.011-994.89-220.252-150.641-41.97-288.21-79.903-412.428-103.413-23.227-4.387-45.882-8.225-67.81-11.36" style="opacity:1;fill:none;stroke:#ececec;stroke-width:1.16267;stroke-linecap:butt;stroke-linejoin:miter;stroke-miterlimit:4;stroke-dasharray:none;stroke-opacity:.593556"/>
        <path id="path47" d="M1918.322 808.05c-126.992 26.035-276.344 29.37-431.816 11.474-338.276-39.054-685.597-146.236-1020.44-244.937C312.98 529.462 173.781 488.855 48.472 463.39A1017.244 572.712 0 0 0 .21 454.314" style="opacity:1;fill:none;stroke:#ececec;stroke-width:1.16267;stroke-linecap:butt;stroke-linejoin:miter;stroke-miterlimit:4;stroke-dasharray:none;stroke-opacity:.593556"/>
        <path id="path48" d="M1918.322 837.73c-125.728 19.523-271.031 18.205-421.6-2.114-347.858-47.03-702.79-162.288-1044.062-267.92-155.316-48.07-295.996-91.186-422.3-118.396a1074.824 605.13 0 0 0-30.15-6.23" style="opacity:1;fill:none;stroke:#ececec;stroke-width:1.16267;stroke-linecap:butt;stroke-linejoin:miter;stroke-miterlimit:4;stroke-dasharray:none;stroke-opacity:.593556"/>
        <path id="path49" d="M1918.322 868.549c-123.694 13.08-264.115 4.515-412.329-18.02C1149.341 796.12 787.387 673.5 440.258 561.392c-157.328-50.787-299.393-96.04-426.549-124.999A1202.779 677.168 0 0 0 .21 433.386" style="opacity:1;fill:none;stroke:#ececec;stroke-width:1.16267;stroke-linecap:butt;stroke-linejoin:miter;stroke-miterlimit:4;stroke-dasharray:none;stroke-opacity:.593556"/>
        <path id="path50" d="M1918.322 891.065c-122.353 8.529-259.576-2.733-404.005-26.886-364.644-61.166-732.947-190.563-1085.422-308.486C270.435 502.678 127.73 455.521.21 425.095" style="opacity:1;fill:none;stroke:#ececec;stroke-width:1.16267;stroke-linecap:butt;stroke-linejoin:miter;stroke-miterlimit:4;stroke-dasharray:none;stroke-opacity:.593556"/>
        <path id="path51" d="M1918.322 910.627c-121.013 4.859-255.452-8.598-396.645-34.107-371.8-67.166-745.815-202.762-1103.063-325.94C264.217 497.26 124.95 449.857.21 418.053" style="opacity:1;fill:none;stroke:#ececec;stroke-width:1.16267;stroke-linecap:butt;stroke-linejoin:miter;stroke-miterlimit:4;stroke-dasharray:none;stroke-opacity:.593556"/>
        <path id="path52" d="M1918.322 927.473c-119.74 1.859-251.764-13.468-390.202-39.974-378.114-72.609-757.268-213.516-1118.674-341.44C258.612 492.703 122.449 445.078.21 412.133" style="opacity:1;fill:none;stroke:#ececec;stroke-width:1.16267;stroke-linecap:butt;stroke-linejoin:miter;stroke-miterlimit:4;stroke-dasharray:none;stroke-opacity:.593556"/>
        <path id="path53" d="M1918.322 941.757c-118.588-.548-248.575-17.272-384.668-44.668-383.613-77.286-767.207-222.92-1132.23-354.959C253.784 488.666 120.29 440.96.21 407.195" style="opacity:1;fill:none;stroke:#ececec;stroke-width:1.16267;stroke-linecap:butt;stroke-linejoin:miter;stroke-miterlimit:4;stroke-dasharray:none;stroke-opacity:.593556"/>
        <path id="path54" d="M1918.322 953.64c-117.578-2.477-245.862-20.337-380.01-48.398-388.277-81.309-775.62-230.945-1143.718-366.447C249.582 485.453 118.405 437.646.21 403.186" style="opacity:1;fill:none;stroke:#ececec;stroke-width:1.16267;stroke-linecap:butt;stroke-linejoin:miter;stroke-miterlimit:4;stroke-dasharray:none;stroke-opacity:.593556"/>
        <path id="path55" d="M1918.322 963.242c-116.723-3.965-243.64-22.742-376.245-51.306-392.094-84.57-782.507-237.542-1153.12-375.88C246.191 482.725 116.873 434.965.21 400.008" style="opacity:1;fill:none;stroke:#ececec;stroke-width:1.16267;stroke-linecap:butt;stroke-linejoin:miter;stroke-miterlimit:4;stroke-dasharray:none;stroke-opacity:.593556"/>
        <path id="path56" d="M1918.322 970.64c-116.064-5.069-241.934-24.49-373.334-53.468C1149.916 830 757.051 674.558 384.552 533.927 243.475 480.729 115.654 432.942.21 397.605" style="opacity:1;fill:none;stroke:#ececec;stroke-width:1.16267;stroke-linecap:butt;stroke-linejoin:miter;stroke-miterlimit:4;stroke-dasharray:none;stroke-opacity:.593556"/>
        <path id="path57" d="M1918.322 975.874c-115.591-5.831-240.712-25.69-371.262-54.958-397.208-88.938-791.735-246.344-1165.668-388.513C241.6 479.189 114.794 431.493.21 395.923" style="opacity:1;fill:none;stroke:#ececec;stroke-width:1.16267;stroke-linecap:butt;stroke-linejoin:miter;stroke-miterlimit:4;stroke-dasharray:none;stroke-opacity:.593556"/>
        <path id="path58" d="M1918.322 979.005c-115.29-6.298-239.96-26.453-370.02-55.845-398.472-90.12-794.058-248.526-1168.81-391.672C240.417 478.378 114.25 430.693.21 394.95" style="opacity:1;fill:none;stroke:#ececec;stroke-width:1.16267;stroke-linecap:butt;stroke-linejoin:miter;stroke-miterlimit:4;stroke-dasharray:none;stroke-opacity:.593556"/>
    </g>
    <g id="g2" style="stroke-width:.542493" transform="matrix(1.84334 0 0 1.84334 1397.355 67.858)">
        <path id="path42-6" d="M206.45 111.84a2.65 2.65 0 0 1 2.51 2.87v7.71a2.38 2.38 0 0 1-2.69 2.69h-33.35c-8.25 0-13.09 2.86-13.09 9.32v2.33c0 5 2.33 9.32 11.11 12.55l23.85 9.51c16.5 6.27 17.93 15.42 17.93 25.28v2c0 20.08-12 24-36.22 24-15.6 0-29.76-1.26-32.81-1.62-2.15-.17-2.69-1.25-2.69-2.68v-7.89a2.37 2.37 0 0 1 2.69-2.69h33.17c14.34 0 18.83-1.62 18.83-9.33v-2.15c0-5.2-2.15-8.61-10.4-12L159.83 162c-13.81-5.38-17.22-15.78-17.22-25.64v-3.76c0-19.73 17.22-22.42 36.4-22.42a226 226 0 0 1 27.44 1.66" class="a" style="stroke-width:.542493"/>
        <path id="path44-2" d="M198.33 45a29.5 29.5 0 0 0-18.65-6.64H66.94a29.6 29.6 0 0 0-13.81 3.41 30 30 0 0 0-12 11.6c-.54 1-1 1.94-1.46 2.93-.26.68-.55 1.35-.78 2a26 26 0 0 0-1.07 4.15A28 28 0 0 0 37.3 68v112.7a29.2 29.2 0 0 0 2.93 12.84 29.63 29.63 0 0 0 26.71 16.77h60.18a1.6 1.6 0 0 0 1.6-1.6v-7.19a1.6 1.6 0 0 0-1.6-1.6h-7.81L96 152.71l53.18-70.48a6 6 0 0 0 1-2.07l48.73 7.46v11a1.6 1.6 0 0 0 1.6 1.59h7.23a1.61 1.61 0 0 0 1.6-1.59V68a29.49 29.49 0 0 0-11.01-23M137 48.74l2.52 20.08-39.4-6-1.78-14zm-70 0h21.65l1.55 12.55-28.78-4.4-9.08-1.4a19.11 19.11 0 0 1 14.6-6.75zM88.87 70.8 68.78 97.5l-15.9-32.22Zm-41.16 5.7 12.88 26.08-12.88 1.58zm0 37.35 17.35-2.19 18 36.39-35.35 4.45zm60.89 86.07H68.54a20.88 20.88 0 0 1-20.83-20.82v-16.93l39.79-5zm-17.34-56.83-17.75-36 26.1-34.59v-.06l40.26 6.16zM198.9 77.9l-49.57-7.58-2.7-21.58h31.45a20.87 20.87 0 0 1 20.82 20.81z" class="a" style="stroke-width:.542493"/>
    </g>
</svg>
