<svg xmlns="http://www.w3.org/2000/svg" width="869.894" height="527.606" viewBox="0 0 230.16 139.596">
    <g style="stroke:#8d8d8d;stroke-width:.768775;stroke-linecap:butt;stroke-linejoin:round;stroke-miterlimit:100000;stroke-dasharray:none;stroke-opacity:.0896032">
        <path d="M-78.535 64.602q-11.388 24.496 4.306 30.716c15.693 6.22 53.008 8.708 68.606 22.2 15.597 13.493 63.155 3.062 71.289-20.095 8.133-23.157 22.778-58.849-54.444-58.849q-77.221 0-89.757 26.028z" style="fill:none;" transform="matrix(-.48176 0 0 -.40704 133.718 109.003)"/>
        <path d="M-190.246 96.846q7.717 68.591 61.713 86.007c53.995 17.415 162.5 24.381 227.985 62.16 65.483 37.778 181.784 8.573 167.123-56.266C251.915 123.907 235.22 23.969 19 23.969q-216.221 0-209.245 72.877z" style="fill:none;stroke-opacity:.03" transform="matrix(-.48176 0 0 -.40704 133.718 109.003)"/>
        <path d="M-181.868 94.16q3.618 64.916 53.785 81.398c50.167 16.483 152.484 23.076 212.431 58.83 59.945 35.755 171.585 8.114 161.194-53.252-10.39-61.365-20.82-155.95-225.458-155.95q-204.638 0-201.951 68.973z" style="fill:none;stroke-opacity:.03" transform="matrix(-.48176 0 0 -.40704 133.718 109.003)"/>
        <path d="M-173.277 91.472q.09 61.242 46.573 76.792c46.484 15.55 142.673 21.769 197.396 55.5 54.722 33.73 161.457 7.654 154.796-50.238S213.828 26.403 20.774 26.403q-193.055 0-194.05 65.07z" style="fill:none;stroke-opacity:.05" transform="matrix(-.48176 0 0 -.40704 133.718 109.003)"/>
        <path d="M-164.492 88.785q-2.914 57.567 40.018 72.184c42.934 14.617 133.046 20.463 182.835 52.17 49.786 31.707 151.395 7.195 147.968-47.223S202.573 27.62 21.102 27.62q-181.471 0-185.594 61.165z" style="fill:none;stroke-opacity:.05" transform="matrix(-.48176 0 0 -.40704 133.718 109.003)"/>
        <path d="M-155.528 86.098q-5.437 53.893 34.069 67.577c39.505 13.683 123.591 19.156 168.71 48.84 45.117 29.683 141.393 6.736 140.744-44.21-.648-50.945 2.99-129.468-166.898-129.468q-169.889 0-176.625 57.261z" style="fill:none;stroke-opacity:.05" transform="matrix(-.48176 0 0 -.40704 133.718 109.003)"/>
        <path d="M-146.398 83.411q-7.509 50.219 28.682 62.969c36.191 12.75 114.295 17.85 154.992 45.51 40.695 27.66 131.447 6.277 133.153-41.195 1.706-47.471 8.657-120.64-149.647-120.64q-158.305 0-167.18 53.356z" style="fill:none;stroke-opacity:.07" transform="matrix(-.48176 0 0 -.40704 133.718 109.003)"/>
        <path d="M-137.112 80.724q-9.164 46.545 23.82 58.361c32.983 11.818 105.149 16.545 141.654 42.18 36.503 25.636 121.553 5.818 125.218-38.18 3.664-43.998 13.318-111.813-133.403-111.813q-146.722 0-157.288 49.452z" style="fill:none;stroke-opacity:.07" transform="matrix(-.48176 0 0 -.40704 133.718 109.003)"/>
        <path d="M-127.679 78.037q-10.424 42.87 19.453 53.754c29.876 10.885 96.143 15.238 128.673 38.85 32.53 23.611 111.71 5.358 116.96-35.166 5.25-40.525 17.03-102.986-118.108-102.986q-135.139 0-146.978 45.548z" style="fill:none;stroke-opacity:.07" transform="matrix(-.48176 0 0 -.40704 133.718 109.003)"/>
        <path d="M-118.107 75.35q-11.308 39.195 15.555 49.146c26.864 9.952 87.27 13.933 116.033 35.52 28.762 21.588 101.913 4.9 108.393-32.152 6.48-37.05 19.842-94.158-103.712-94.158q-123.555-.001-136.269 41.644z" style="fill:none;" transform="matrix(-.48176 0 0 -.40704 133.718 109.003)"/>
        <path d="M-108.402 72.663q-11.835 35.52 12.107 44.539c23.943 9.019 78.525 12.626 103.717 32.19s92.16 4.44 99.533-29.138c7.373-33.577 21.794-85.331-90.178-85.331q-111.971 0-125.18 37.74z" style="fill:none;" transform="matrix(-.48176 0 0 -.40704 133.718 109.003)"/>
        <path d="M-98.57 69.976q-12.016 31.845 9.092 39.931c21.108 8.086 69.901 11.32 91.713 28.86 21.81 17.54 82.45 3.98 90.39-26.123s22.918-76.504-77.47-76.504q-100.389 0-113.724 33.836z" style="fill:none;" transform="matrix(-.48176 0 0 -.40704 133.718 109.003)"/>
        <path d="M-88.613 67.289q-11.865 28.17 6.494 35.324c18.36 7.153 61.397 10.014 80.012 25.53 18.614 15.516 72.782 3.52 80.973-23.11 8.19-26.63 23.24-67.676-65.565-67.676q-88.805 0-101.914 29.932z" style="fill:none;" transform="matrix(-.48176 0 0 -.40704 133.718 109.003)"/>
    </g>
</svg>
