<svg xmlns="http://www.w3.org/2000/svg" xmlns:xlink="http://www.w3.org/1999/xlink" width="88.959" height="102.465">
    <defs>
        <path id="a" d="M12.125 1.963c3.696 9.816 16.63 22.865 32.565 22.865 8.777 0 16.745-3.118 22.98-8.43.462-.231 4.735 4.62 6.467 6.467.347.462.347.577.347.577C53.467 41.803 17.784 39.147.924 7.391 2.31 2.77 4.273 0 4.273 0c4.503 1.848 7.852 1.963 7.852 1.963"/>
        <path id="c" d="M.462.577h90.535v103.931H.462z"/>
    </defs>
    <g style="fill:none;fill-rule:evenodd;stroke:none;stroke-width:1">
        <path fill="#fff" stroke="#2db24a" stroke-width=".25" d="M24.465 54.638c-1.964-.462-6.005-1.732-10.278-4.388 4.62-2.656 8.776-3.118 10.278-3.233a34.4 34.4 0 0 1 1.039-4.966c-1.501-1.155-4.388-3.464-7.044-6.929 4.272-.346 7.968.231 9.815.578.924-1.617 2.08-3.118 3.465-4.62a29.6 29.6 0 0 1-3.234-7.968c3.465 1.502 6.005 3.35 7.276 4.389 1.732-1.27 3.58-2.31 5.427-3.234 0-1.616 0-4.503.693-7.968 2.425 2.54 3.926 4.966 4.504 6.236a30 30 0 0 1 7.275-.577c.462-1.27 1.386-3.465 3.002-6.12a36 36 0 0 1 1.848 6.697c2.54.577 4.965 1.386 7.275 2.54 3.695-3.117 7.16-4.503 11.201-5.542 0-5.081-.692-10.047-3.348-15.013-2.656-1.27-5.543-2.194-8.43-2.887a35 35 0 0 0-7.506 5.428 35.5 35.5 0 0 0-5.89-6.929c-1.155 0-3.349-.115-7.621.578a36.2 36.2 0 0 0-4.735 7.968c-2.54-1.617-5.659-3.003-9.238-3.927-2.079.924-4.042 1.963-6.005 3.118-.693 3.35-.924 6.467-.809 9.354a32.6 32.6 0 0 0-10.162-.346c-1.27 1.385-2.54 2.887-3.695 4.503.23 4.157 1.27 7.737 2.771 10.855a30.6 30.6 0 0 0-10.393 4.62c-.462 1.5-.808 3.117-1.155 4.619 2.08 3.58 4.735 6.466 7.391 8.66C5.526 52.33 2.87 55.331.445 59.373a34.4 34.4 0 0 0 1.04 4.965H1.6c2.771-5.774 6.12-9.584 9.354-12.125 6.582 4.504 13.049 5.774 13.973 5.89-.116-1.04-.347-2.08-.462-3.465zM68.347 5.56c2.31 3.464 3.117 7.737 3.348 10.162-2.078.808-5.312 2.31-8.43 4.85-.461-2.194-1.27-5.428-3.002-9.123a32.5 32.5 0 0 1 8.084-5.89zm-20.21-2.31c2.772 2.31 4.85 5.081 6.352 7.622-2.425 3.118-3.926 6.12-4.735 8.199-1.154-2.079-3.233-4.85-6.35-7.622 1.038-2.656 2.54-5.543 4.734-8.199zM28.392 8.91c4.042.808 7.16 2.31 9.816 4.157a36.5 36.5 0 0 0-1.386 9.931c-2.079-1.501-5.081-3.349-9.007-4.62-.347-2.77-.231-6.004.577-9.468zm-4.274 12.7a35.3 35.3 0 0 0 3.465 10.162c-2.656-.462-6.698-.808-11.202-.23a26.1 26.1 0 0 1-2.887-10.51c3.926-.461 7.506-.115 10.624.578ZM3.91 40.088c3.35-2.425 7.045-3.696 10.394-4.388 2.425 3.81 5.427 6.582 7.506 8.314a29.1 29.1 0 0 0-10.74 4.157 29.1 29.1 0 0 1-7.16-8.083Z"/>
        <g fill="#43b02a" stroke="#43b02a" stroke-width=".25">
            <path d="M46.521 22.535c-.693-1.27-2.079-3.81-4.504-6.236-.808 3.465-.808 6.467-.692 7.968-.116 0 2.194-1.155 5.196-1.732zm-10.739 4.85a29.2 29.2 0 0 0-7.276-4.388 29.6 29.6 0 0 0 3.234 7.968c0 .23 1.616-1.732 4.042-3.58zm13.972-8.315c.809-2.078 2.31-5.08 4.735-8.198a27.6 27.6 0 0 0-6.351-7.622c-2.194 2.772-3.696 5.543-4.735 8.315 3.118 2.656 5.081 5.427 6.351 7.506zM28.39 35.7c-1.847-.347-5.542-.924-9.815-.578 2.54 3.58 5.428 5.89 7.044 6.929-.115.115.809-3.003 2.772-6.351zM11.185 48.171c4.157-2.656 8.083-3.81 10.74-4.157-2.08-1.732-5.082-4.504-7.507-8.314a27.9 27.9 0 0 0-10.393 4.388 25.9 25.9 0 0 0 7.16 8.083zm13.28-1.039c-1.617.115-5.659.462-10.278 3.233 4.273 2.656 8.314 3.927 10.278 4.389-.347-2.54-.347-5.197 0-7.622zm13.742-34.066c-2.54-1.732-5.774-3.234-9.816-4.157a30.6 30.6 0 0 0-.693 9.469c3.926 1.27 6.929 3.118 9.007 4.619 0-2.31.347-5.89 1.502-9.931zm35.567-8.43s3.233 9.931 3.349 15.012c-3.926.924-7.39 2.31-11.201 5.543 2.078 1.04 3.926 2.31 5.658 3.81 1.848 1.618 3.58 2.31 6.005 1.156 1.386-.924 9.123-8.892 9.931-9.932 1.848-1.963 1.386-5.196-.577-6.697-4.85-4.504-13.165-8.892-13.165-8.892ZM2.062 36.854c3.464-2.31 6.928-3.81 10.393-4.619-1.501-3.118-2.54-6.698-2.772-10.855-3.349 4.735-6.005 10.047-7.621 15.474Zm25.405-5.081C26.312 29.58 24.811 26 24.003 21.611c-3.118-.693-6.583-1.04-10.624-.462.23 4.042 1.385 7.506 2.887 10.509a35.2 35.2 0 0 1 11.201.115z"/>
            <path d="M13.379 16.992a32.6 32.6 0 0 1 10.162.346c-.116-2.886.115-6.004.808-9.353 1.963-1.155 3.926-2.194 6.005-3.118 3.695.924 6.698 2.31 9.238 3.926A36.2 36.2 0 0 1 44.327.825c-10.509 1.617-20.44 6.236-28.061 13.396-2.425 2.194-4.62 4.734-6.583 7.39 1.155-1.732 2.425-3.233 3.696-4.619zM1.484 39.164c.231-.808.347-1.501.578-2.31-.231.809-.462 1.617-.578 2.31ZM8.413 50.25c-2.656-2.194-5.312-5.081-7.39-8.661-1.155 5.89-1.155 12.125-.232 17.9 2.195-4.043 4.85-6.93 7.622-9.24Zm77.602 29.793c-7.275-6.928-8.777-11.432-14.897-6.697-16.744 13.164-40.88 5.312-45.96-15.128-.924-.116-7.391-1.386-13.973-5.89C7.95 54.87 4.602 58.796 1.83 64.455h-.116c10.509 39.724 61.666 48.963 85.34 24.135 3.925-4.157.346-7.044-1.04-8.546ZM68.347 5.56a27.6 27.6 0 0 0-8.084 5.89c1.732 3.694 2.54 7.043 3.002 9.122 3.234-2.54 6.467-4.042 8.43-4.85-.23-2.31-1.039-6.582-3.348-10.162ZM56.799 15.837a31.5 31.5 0 0 0-3.003 6.12q2.426.174 4.85.694c-.115-1.386-.693-3.811-1.847-6.814zM69.617 3.02c-.578-.232-1.27-.463-1.848-.578.693.115 1.27.346 1.848.577ZM57.838 7.06a35 35 0 0 1 7.506-5.427C61.071.594 56.684.133 51.95.133a35.5 35.5 0 0 1 5.889 6.928Z"/>
        </g>
        <g transform="translate(8.182 61.567)">
            <mask id="b" fill="#fff">
                <use xlink:href="#a"/>
            </mask>
            <g mask="url(#b)">
                <g fill="#fff" transform="translate(-9.238 -63.513)">
                    <mask id="d">
                        <use xlink:href="#c"/>
                    </mask>
                    <path stroke="#2db24a" stroke-width=".25" d="M2.656 56.123h88.341v49.656H2.656z" mask="url(#d)"/>
                </g>
                <path stroke="#2db24a" stroke-width=".25" d="M-8.776-62.936h90.535v103.93H-8.776z"/>
            </g>
        </g>
        <path stroke="#2db24a" stroke-width=".25" d="M20.307 63.53c3.696 9.816 16.63 22.865 32.565 22.865 8.777 0 16.745-3.118 22.98-8.43.463-.231 4.735 4.619 6.467 6.467.347.462.347.577.347.577-21.017 18.361-56.7 15.705-73.56-16.052 1.386-4.619 3.349-7.39 3.349-7.39 4.504 1.848 7.852 1.963 7.852 1.963Z"/>
    </g>
</svg>
