<svg xmlns="http://www.w3.org/2000/svg" width="223.68" height="223.68" viewBox="0 0 167.76 167.76">
    <defs>
        <style>
            *{stroke-linejoin:round;stroke-linecap:butt}
        </style>
    </defs>
    <g id="figure_1">
        <g id="axes_1">
            <path id="patch_2" d="M83.88 83.88h83.928a83.93 83.93 0 0 1-116.046 77.54A83.93 83.93 0 0 1 24.534 24.534 83.93 83.93 0 0 1 161.42 51.762a83.9 83.9 0 0 1 6.388 32.118z" style="fill:#fff;fill-opacity:.9"/>
            <g id="matplotlib.axis_1">
                <g id="xtick_1">
                    <path id="line2d_1" d="M83.88 83.88h78.847" clip-path="url(#pccb0f66489)" style="fill:none;stroke:#e6e6e6;stroke-linecap:square"/>
                </g>
                <g id="xtick_2">
                    <path id="line2d_2" d="m83.88 83.88 55.753-55.753" clip-path="url(#pccb0f66489)" style="fill:none;stroke:#e6e6e6;stroke-linecap:square"/>
                </g>
                <g id="xtick_3">
                    <path id="line2d_3" d="M83.88 83.88V5.033" clip-path="url(#pccb0f66489)" style="fill:none;stroke:#e6e6e6;stroke-linecap:square"/>
                </g>
                <g id="xtick_4">
                    <path id="line2d_4" d="M83.88 83.88 28.127 28.127" clip-path="url(#pccb0f66489)" style="fill:none;stroke:#e6e6e6;stroke-linecap:square"/>
                </g>
                <g id="xtick_5">
                    <path id="line2d_5" d="M83.88 83.88H5.033" clip-path="url(#pccb0f66489)" style="fill:none;stroke:#e6e6e6;stroke-linecap:square"/>
                </g>
                <g id="xtick_6">
                    <path id="line2d_6" d="m83.88 83.88-55.753 55.753" clip-path="url(#pccb0f66489)" style="fill:none;stroke:#e6e6e6;stroke-linecap:square"/>
                </g>
                <g id="xtick_7">
                    <path id="line2d_7" d="M83.88 83.88v78.847" clip-path="url(#pccb0f66489)" style="fill:none;stroke:#e6e6e6;stroke-linecap:square"/>
                </g>
                <g id="xtick_8">
                    <path id="line2d_8" d="m83.88 83.88 55.753 55.753" clip-path="url(#pccb0f66489)" style="fill:none;stroke:#e6e6e6;stroke-linecap:square"/>
                </g>
            </g>
            <g id="matplotlib.axis_2">
                <g id="ytick_1">
                    <path id="line2d_9" d="M92.64 83.88a8.761 8.761 0 1 0-17.521 0 8.761 8.761 0 0 0 17.522 0" clip-path="url(#pccb0f66489)" style="fill:none;stroke:#e6e6e6;stroke-linecap:square"/>
                </g>
                <g id="ytick_2">
                    <path id="line2d_10" d="M110.162 83.88a26.283 26.283 0 1 0-52.566 0 26.283 26.283 0 0 0 52.566 0" clip-path="url(#pccb0f66489)" style="fill:none;stroke:#e6e6e6;stroke-linecap:square"/>
                </g>
                <g id="ytick_3">
                    <path id="line2d_11" d="M127.684 83.88a43.805 43.805 0 1 0-87.61 0 43.805 43.805 0 0 0 87.61 0" clip-path="url(#pccb0f66489)" style="fill:none;stroke:#e6e6e6;stroke-linecap:square"/>
                </g>
                <g id="ytick_4">
                    <path id="line2d_12" d="M145.206 83.88a61.327 61.327 0 0 0-104.69-43.364 61.327 61.327 0 0 0 43.364 104.69 61.327 61.327 0 0 0 61.326-61.326" clip-path="url(#pccb0f66489)" style="fill:none;stroke:#e6e6e6;stroke-linecap:square"/>
                </g>
            </g>
            <path id="patch_3" d="m83.88 83.88 16.664-5.414a17.5 17.5 0 0 1 .858 5.414z" clip-path="url(#pccb0f66489)" style="fill:#004cff;fill-opacity:.6;stroke:#4c4c4c;stroke-width:1.5;stroke-linejoin:miter"/>
            <path id="patch_4" d="m83.88 83.88 18.47-49.213a52.6 52.6 0 0 1 14.304 8.116z" clip-path="url(#pccb0f66489)" style="fill:#ceff29;fill-opacity:.6;stroke:#4c4c4c;stroke-width:1.5;stroke-linejoin:miter"/>
            <path id="patch_5" d="M83.88 83.88 38.963 30.079A70.1 70.1 0 0 1 68.284 15.55z" clip-path="url(#pccb0f66489)" style="fill:#ff6800;fill-opacity:.6;stroke:#4c4c4c;stroke-width:1.5;stroke-linejoin:miter"/>
            <path id="patch_6" d="M83.88 83.88 23.54 94.83a61.33 61.33 0 0 1 5.088-37.558z" clip-path="url(#pccb0f66489)" style="fill:#ffc400;fill-opacity:.6;stroke:#4c4c4c;stroke-width:1.5;stroke-linejoin:miter"/>
            <path id="patch_7" d="m83.88 83.88-28.806 19.957a35 35 0 0 1-2.767-4.752z" clip-path="url(#pccb0f66489)" style="fill:#29ffce;fill-opacity:.6;stroke:#4c4c4c;stroke-width:1.5;stroke-linejoin:miter"/>
            <path id="patch_8" d="m83.88 83.88 7.337 43.185a43.8 43.8 0 0 1-17.084-.48z" clip-path="url(#pccb0f66489)" style="fill:#7dff7a;fill-opacity:.6;stroke:#4c4c4c;stroke-width:1.5;stroke-linejoin:miter"/>
            <path id="patch_9" d="m83.88 83.88 55.283 43.08a70 70 0 0 1-11.585 11.716z" clip-path="url(#pccb0f66489)" style="fill:#ff6800;fill-opacity:.6;stroke:#4c4c4c;stroke-width:1.5;stroke-linejoin:miter"/>
            <path id="patch_10" d="M162.727 83.88a78.85 78.85 0 0 0-109.02-72.845 78.85 78.85 0 0 0-25.58 128.598 78.85 78.85 0 0 0 128.598-25.58 78.9 78.9 0 0 0 6.002-30.173" style="fill:none;stroke:#11557c;stroke-width:4;stroke-linejoin:miter;stroke-linecap:square"/>
        </g>
    </g>
    <defs>
        <clipPath id="pccb0f66489">
            <path d="M162.727 83.88a78.85 78.85 0 0 0-109.02-72.845 78.85 78.85 0 0 0-25.58 128.598 78.85 78.85 0 0 0 128.598-25.58 78.9 78.9 0 0 0 6.002-30.173m0 0"/>
        </clipPath>
    </defs>
</svg>
