<?xml version="1.0" encoding="UTF-8" standalone="no"?>
<!-- Created with Inkscape (http://www.inkscape.org/) -->

<svg
   width="350"
   height="278.681"
   viewBox="0 0 350 278.681"
   version="1.1"
   id="svg1"
   sodipodi:docname="yt.svg"
   inkscape:version="1.3.2 (091e20ef0f, 2023-11-25, custom)"
   xml:space="preserve"
   xmlns:inkscape="http://www.inkscape.org/namespaces/inkscape"
   xmlns:sodipodi="http://sodipodi.sourceforge.net/DTD/sodipodi-0.dtd"
   xmlns="http://www.w3.org/2000/svg"
   xmlns:svg="http://www.w3.org/2000/svg"><sodipodi:namedview
     id="namedview1"
     pagecolor="#ffffff"
     bordercolor="#000000"
     borderopacity="0.25"
     inkscape:showpageshadow="2"
     inkscape:pageopacity="0.0"
     inkscape:pagecheckerboard="0"
     inkscape:deskcolor="#d1d1d1"
     inkscape:document-units="px"
     inkscape:zoom="0.8222573"
     inkscape:cx="143.50739"
     inkscape:cy="352.07957"
     inkscape:window-width="1920"
     inkscape:window-height="1151"
     inkscape:window-x="1920"
     inkscape:window-y="182"
     inkscape:window-maximized="1"
     inkscape:current-layer="layer1" /><defs
     id="defs1"><filter
       style="color-interpolation-filters:sRGB"
       inkscape:label="Drop Shadow"
       id="filter3"
       x="-0.17648789"
       y="-0.17648789"
       width="1.3529758"
       height="1.3529758"><feFlood
         result="flood"
         in="SourceGraphic"
         flood-opacity="0.329412"
         flood-color="rgb(0,0,0)"
         id="feFlood2" /><feGaussianBlur
         result="blur"
         in="SourceGraphic"
         stdDeviation="15.000000"
         id="feGaussianBlur2" /><feOffset
         result="offset"
         in="blur"
         dx="0.000000"
         dy="0.000000"
         id="feOffset2" /><feComposite
         result="comp1"
         operator="in"
         in="flood"
         in2="offset"
         id="feComposite2" /><feComposite
         result="comp2"
         operator="over"
         in="SourceGraphic"
         in2="comp1"
         id="feComposite3" /></filter></defs><g
     inkscape:label="Capa 1"
     inkscape:groupmode="layer"
     id="layer1"
     transform="translate(-65.251215,-185.07223)"><g
       id="g1"
       transform="matrix(0.68359375,0,0,0.68359375,20.645892,58.558008)"
       style="stroke-width:1.46286"><g
         style="fill:#8c0000;fill-opacity:1;stroke-width:0.0457113"
         id="g3"
         transform="matrix(32.002,0,0,32.002,65.251216,121.10023)"><path
           d="M 8.051,1.999 H 8.14 c 0.822,0.003 4.987,0.033 6.11,0.335 a 2.01,2.01 0 0 1 1.415,1.42 c 0.101,0.38 0.172,0.883 0.22,1.402 l 0.01,0.104 0.022,0.26 0.008,0.104 c 0.065,0.914 0.073,1.77 0.074,1.957 v 0.075 c -0.001,0.194 -0.01,1.108 -0.082,2.06 L 15.909,9.821 15.9,9.925 c -0.05,0.572 -0.124,1.14 -0.235,1.558 a 2.01,2.01 0 0 1 -1.415,1.42 c -1.16,0.312 -5.569,0.334 -6.18,0.335 H 7.928 c -0.309,0 -1.587,-0.006 -2.927,-0.052 L 4.831,13.18 4.744,13.176 4.573,13.169 4.402,13.162 C 3.292,13.113 2.235,13.034 1.748,12.902 A 2.01,2.01 0 0 1 0.333,11.483 C 0.222,11.066 0.148,10.497 0.098,9.925 L 0.09,9.82 0.082,9.716 A 31,31 0 0 1 0,7.68 V 7.557 C 0.002,7.342 0.01,6.599 0.064,5.779 L 0.071,5.676 0.074,5.624 0.082,5.52 0.104,5.26 0.114,5.156 C 0.162,4.637 0.233,4.133 0.334,3.754 A 2.01,2.01 0 0 1 1.749,2.334 C 2.236,2.204 3.293,2.124 4.403,2.074 L 4.573,2.067 4.745,2.061 4.831,2.058 5.002,2.051 A 100,100 0 0 1 7.858,2 Z M 6.4,5.209 v 4.818 l 4.157,-2.408 z"
           id="path1"
           style="fill:#8c0000;fill-opacity:1;stroke-width:0.0457113" /></g><g
         id="g15"
         transform="matrix(0.62751251,0,0,0.62751251,377.12436,448.42111)"
         style="stroke-width:0.616798"><rect
           class="a"
           x="26.01"
           y="26.01"
           width="203.98"
           height="203.98"
           rx="37.849998"
           id="rect14"
           style="fill:#fafafa;stroke-width:0.616798" /><path
           class="b"
           d="m 197.63,116.58 a 2.28,2.28 0 0 1 2.15,2.46 v 6.6 a 2,2 0 0 1 -2.3,2.3 h -28.55 c -7.06,0 -11.2,2.45 -11.2,8 v 2 c 0,4.3 2,8 9.52,10.74 l 20.41,8.14 C 201.77,162.16 203,170 203,178.42 v 1.69 c 0,17.19 -10.28,20.56 -31,20.56 -13.35,0 -25.47,-1.07 -28.08,-1.38 -1.84,-0.15 -2.3,-1.07 -2.3,-2.3 v -6.75 a 2,2 0 0 1 2.3,-2.3 h 28.39 c 12.28,0 16.11,-1.38 16.11,-8 v -1.84 c 0,-4.45 -1.84,-7.37 -8.9,-10.28 l -21.79,-8.29 C 145.92,155 143,146.05 143,137.61 v -3.23 c 0,-16.88 14.73,-19.18 31.15,-19.18 a 195,195 0 0 1 23.48,1.38 z"
           id="path16"
           style="fill:#303030;stroke-width:0.616798" /><path
           class="c"
           d="m 190.69,59.34 a 25.27,25.27 0 0 0 -16,-5.68 H 78.24 a 25.37,25.37 0 0 0 -11.82,2.92 25.7,25.7 0 0 0 -10.25,9.93 c -0.46,0.82 -0.87,1.66 -1.25,2.5 -0.22,0.59 -0.47,1.15 -0.67,1.72 A 26.9,26.9 0 0 0 52.87,79 v 96.48 a 25.35,25.35 0 0 0 25.37,25.35 h 51.5 a 1.37,1.37 0 0 0 1.37,-1.37 v -6.15 a 1.37,1.37 0 0 0 -1.37,-1.37 h -6.68 l -20,-40.41 45.51,-60.31 a 5.17,5.17 0 0 0 0.85,-1.77 l 41.7,6.38 v 9.38 a 1.38,1.38 0 0 0 1.37,1.37 h 6.19 a 1.37,1.37 0 0 0 1.36,-1.37 V 79 a 25.25,25.25 0 0 0 -9.35,-19.66 z m -52.52,3.24 2.15,17.19 -33.71,-5.16 -1.52,-12 z m -59.93,0 h 18.58 l 1.33,10.75 -24.63,-3.77 -7.77,-1.2 A 16.33,16.33 0 0 1 78.24,62.58 Z M 97,81.46 79.82,104.31 66.21,76.74 Z m -35.21,4.88 11,22.32 -11,1.35 z m 0,32 14.84,-1.88 15.37,31.12 -30.22,3.8 z M 113.89,192 H 79.61 A 17.87,17.87 0 0 1 61.79,174.17 v -14.51 l 34.05,-4.27 z m -14.83,-48.67 -15.2,-30.8 22.34,-29.6 c 0,0 0,0 0,-0.05 l 34.45,5.27 z m 92.11,-55.79 -42.42,-6.49 -2.31,-18.47 h 26.92 a 17.87,17.87 0 0 1 17.81,17.82 z"
           id="path18"
           style="fill:#8c0000;stroke-width:0.616798" /></g></g></g></svg>
